<svg xmlns="http://www.w3.org/2000/svg" xmlns:xlink="http://www.w3.org/1999/xlink" x="0px" y="0px" viewBox="0 0 64 64" width="64" height="64"><title>money</title><g class="nc-icon-wrapper" fill="#111111" transform="translate(0.5, 0.5)"><polyline data-cap="butt" fill="none" stroke="#111111" stroke-width="1" stroke-miterlimit="10" points="44,2 44,14 56,14 " stroke-linejoin="miter" stroke-linecap="butt"/> <polygon fill="none" stroke="#111111" stroke-width="1" stroke-linecap="square" stroke-miterlimit="10" points="44,2 8,2 8,62 56,62 56,14 " stroke-linejoin="miter"/> <path data-cap="butt" data-color="color-2" fill="none" stroke="#111111" stroke-width="1" stroke-miterlimit="10" d="M26,37L26,37c0,2.8,2.2,5,5,5h2 c2.8,0,5-2.2,5-5v0c0-7-12-3-12-10v0c0-2.8,2.2-5,5-5h2c2.8,0,5,2.2,5,5" stroke-linejoin="miter" stroke-linecap="butt"/> <line data-color="color-2" fill="none" stroke="#111111" stroke-width="1" stroke-linecap="square" stroke-miterlimit="10" x1="32" y1="18" x2="32" y2="46" stroke-linejoin="miter"/></g></svg>