<svg xmlns="http://www.w3.org/2000/svg" width="167" height="24" viewBox="0 0 167 24">
  <g fill="none" fill-rule="evenodd">
    <rect width="167" height="24"/>
    <g fill="#FFFFFF" transform="translate(0 3)">
      <path d="M161.524066 5.55936585C158.717063 5.55936585 156.441743 7.83878049 156.441743 10.6498537L156.441743 17.8156098 158.596087 17.8156098 158.596087 10.6498537C158.596525 9.03073171 159.907102 7.71804878 161.524066 7.71804878 163.141029 7.71804878 164.451606 9.03073171 164.452483 10.6498537L164.452483 17.8156098 166.606388 17.8156098 166.606388 10.6498537C166.606388 7.83878049 164.331068 5.55936585 161.524066 5.55936585M148.033446 5.55936585C151.458042 5.55936585 154.244005 8.34980488 154.244005 11.7799024 154.244005 15.21 151.458042 18 148.033446 18 144.60885 18 141.823325 15.21 141.823325 11.7799024 141.823325 8.34980488 144.60885 5.55936585 148.033446 5.55936585zM148.033446 15.8540488C150.263619 15.8540488 152.078265 14.0263902 152.078265 11.7799024 152.078265 9.50795122 150.301753 7.72858537 148.033446 7.72858537 145.790562 7.72858537 143.965835 9.54614634 143.965835 11.7799024 143.965835 14.0263902 145.790562 15.8540488 148.033446 15.8540488zM137.299423 17.8156098L139.453766 17.8156098 139.453766 5.7437561 137.299423 5.7437561 137.299423 17.8156098zM137.299423 4.23570732L139.453766 4.23570732 139.453766 2.07790244 137.299423 2.07790244 137.299423 4.23570732zM135.044703 7.71717073L135.044703 5.7437561 131.454861 5.7437561 131.454861 2.07790244 129.300517 2.07790244 129.300517 13.7959024C129.300517 16.0160488 131.097192 17.8156098 133.313777 17.8156098L135.044703 17.8156098 135.044703 15.6578049 133.318598 15.6578049C132.289423 15.6578049 131.454861 14.8219024 131.454861 13.7910732L131.454861 7.71717073 135.044703 7.71717073M120.869428 5.55936585C124.294024 5.55936585 127.079549 8.34980488 127.079549 11.7799024 127.079549 15.21 124.294024 18 120.869428 18 117.444832 18 114.658869 15.21 114.658869 11.7799024 114.658869 8.34980488 117.444832 5.55936585 120.869428 5.55936585zM120.869428 15.8540488C123.099601 15.8540488 124.913808 14.0263902 124.913808 11.7799024 124.913808 9.50795122 123.137297 7.72858537 120.869428 7.72858537 118.626543 7.72858537 116.801816 9.54614634 116.801816 11.7799024 116.801816 14.0263902 118.626543 15.8540488 120.869428 15.8540488zM103.787213 14.1405366L96.9117218.210292683 95.1597559.210292683 95.1597559 17.8156098 97.3136614 17.8156098 97.3136614 5.38068293 103.181016 17.262439 104.415764 17.262439 110.283118 5.38068293 110.283118 17.8156098 112.437462 17.8156098 112.437462.210292683 110.662265.210292683 103.787213 14.1405366M87.6920945 14.4781463L84.5681864 6.11253659 83.1554803 6.11253659 80.0543648 14.4755122 76.8581339 5.7437561 74.5227638 5.7437561 79.1992021 17.8156098 80.7469108 17.8156098 83.8734488 9.486 87.0004252 17.8156098 88.5253412 17.8156098 93.1776719 5.7437561 90.8892021 5.7437561 87.6920945 14.4781463M67.9427008 5.55936585C71.3672966 5.55936585 74.1532598 8.34980488 74.1532598 11.7799024 74.1532598 15.21 71.3672966 18 67.9427008 18 64.5185433 18 61.7325801 15.21 61.7325801 11.7799024 61.7325801 8.34980488 64.5185433 5.55936585 67.9427008 5.55936585zM67.9427008 15.8540488C70.172874 15.8540488 71.9875197 14.0263902 71.9875197 11.7799024 71.9875197 9.50795122 70.2110079 7.72858537 67.9427008 7.72858537 65.7002546 7.72858537 63.8755276 9.54614634 63.8755276 11.7799024 63.8755276 14.0263902 65.7002546 15.8540488 67.9427008 15.8540488zM60.3400367 15.6582439L59.9126745 15.6582439C59.1578871 15.6582439 58.5459921 15.0453659 58.5459921 14.2893659L58.5459921.210292683 56.3916483.210292683 56.3916483 14.2941951C56.3916483 16.2390732 57.9656562 17.8160488 59.907853 17.8160488L60.3400367 17.8160488 60.3400367 15.6582439M45.1561864 17.8156098L47.3105302 17.8156098 47.3105302 9.97682927 53.941 9.97682927 53.941 8.00341463 47.3105302 8.00341463 47.3105302 2.36809756 54.4012362 2.36809756 54.4012362.210292683 45.1561864.210292683 45.1561864 17.8156098M28.8668924 17.2839512C29.0628215 17.4801951 28.9243123 17.8151707 28.647294 17.8151707L26.4272021 17.8151707C26.3447979 17.8151707 26.2654619 17.7822439 26.2071654 17.7238537L19.1006798 10.6059512 20.6501417 9.054 28.8668924 17.2839512zM36.7329869 10.3960976C36.8539633 10.5172683 36.8539633 10.7139512 36.7329869 10.835561L35.6218451 11.9480488C35.5008688 12.0696585 35.3045013 12.0696585 35.1835249 11.9480488L25.7543806 2.50419512C25.3778635 2.12707317 24.7677218 2.12707317 24.3912047 2.50419512 21.8524541 5.04702439 13.0154803 13.8990732 11.543601 15.3733171L11.5440394 15.3733171 10.7690892 16.1495122C9.20516273 17.7159512 6.9640315 18.3586829 4.70624409 17.8033171 4.15396063 17.6676585 3.6218399 17.4481463 3.13442782 17.154439.991041995 15.8615122-.161301837 13.6000976.0184094488 11.1929268.133687664 9.6444878.858230971 8.2044878 1.9540315 7.1064878L8.10015748.950926829C9.33183727-.282731707 11.3283858-.282731707 12.5600656.950926829L16.3020052 4.69931707 14.7525433 6.25082927 11.0119186 2.50419512C10.6354016 2.12707317 10.0248215 2.12707317 9.64830446 2.50419512L3.49078215 8.67160976C2.77412861 9.38941463 2.28627822 10.3262927 2.20518898 11.3382439 2.09385564 12.7281951 2.66235696 14.0448293 3.75684252 14.9189268 4.33849344 15.3838537 5.04287402 15.6810732 5.78100525 15.7723902 7.07361155 15.9321951 8.31844094 15.4997561 9.2196273 14.597561 9.2196273 14.597561 9.6014042 14.2142927 9.80478478 14.0105854L22.8426194.950926829C24.0742992-.282731707 26.0708478-.282731707 27.3025276.950926829L36.7329869 10.3960976z"/>
    </g>
  </g>
</svg>
