<?xml version="1.0" encoding="UTF-8"?>
<svg width="49px" height="24px" viewBox="0 0 49 24" version="1.1" xmlns="http://www.w3.org/2000/svg" xmlns:xlink="http://www.w3.org/1999/xlink">
    <!-- Generator: sketchtool 50 (54983) - http://www.bohemiancoding.com/sketch -->
    <title>62B55600-6B12-4FC2-B195-21005E6743E7</title>
    <desc>Created with sketchtool.</desc>
    <defs></defs>
    <g id="Landing" stroke="none" stroke-width="1" fill="none" fill-rule="evenodd">
        <g id="Landing-Desktop-HD" transform="translate(-555.000000, -8848.000000)">
            <g id="10-App" transform="translate(0.000000, 8690.000000)">
                <g id="Copy" transform="translate(288.000000, 28.000000)">
                    <g id="Icons" transform="translate(267.000000, 126.000000)">
                        <g id="Brandlogo/FlowMotion-Logo-White">
                            <g id="fm-logo-glyph-light">
                                <rect id="Rectangle-path" x="0" y="0" width="49" height="32"></rect>
                                <path d="M38.2291278,27.0452683 C38.4886014,27.3069268 38.3051703,27.7535609 37.9383083,27.7535609 L34.9981866,27.7535609 C34.8890567,27.7535609 34.7839901,27.7096585 34.7067866,27.6318049 L25.2954949,18.1412683 L27.347485,16.072 L38.2291278,27.0452683 Z M48.6463881,17.8614635 C48.8066,18.0230244 48.8066,18.2852683 48.6463881,18.4474147 L47.1748759,19.9307317 C47.0146641,20.092878 46.7546098,20.092878 46.5943978,19.9307317 L34.1071527,7.33892683 C33.6085219,6.83609756 32.8004964,6.83609756 32.3018657,7.33892683 C28.9397365,10.7293659 17.2367172,22.5320976 15.2874716,24.4977561 L15.2880522,24.4977561 L14.2617668,25.5326829 C12.1906209,27.6212683 9.22263631,28.4782439 6.23259352,27.7377561 C5.5011911,27.556878 4.79649068,27.2641951 4.150999,26.8725853 C1.31246102,25.1486829 -0.213615946,22.1334635 0.0243800808,18.9239024 C0.177045825,16.8593171 1.13657615,14.9393171 2.58777145,13.4753171 L10.7272356,5.26790244 C12.3583791,3.62302439 15.0024569,3.62302439 16.6336004,5.26790244 L21.589142,10.2657561 L19.5371519,12.334439 L14.5833517,7.33892683 C14.084721,6.83609756 13.276115,6.83609756 12.7774843,7.33892683 L4.62292771,15.5621463 C3.673846,16.5192195 3.02777386,17.7683903 2.92038541,19.1176585 C2.77294396,20.9709268 3.52582408,22.7264391 4.97527793,23.8919024 C5.74557239,24.5118049 6.67840073,24.9080976 7.65592587,25.0298536 C9.36775584,25.2429268 11.0163137,24.6663415 12.2097767,23.4634147 C12.2097767,23.4634147 12.7153731,22.9523903 12.984715,22.6807805 L30.2510365,5.26790244 C31.88218,3.62302439 34.5262579,3.62302439 36.1574014,5.26790244 L48.6463881,17.8614635 Z" id="Shape" fill="#FFFFFF" fill-rule="nonzero"></path>
                            </g>
                        </g>
                    </g>
                </g>
            </g>
        </g>
    </g>
</svg>