<?xml version="1.0" encoding="UTF-8"?>
<svg width="60px" height="60px" viewBox="0 0 60 60" version="1.1" xmlns="http://www.w3.org/2000/svg" xmlns:xlink="http://www.w3.org/1999/xlink">
    <!-- Generator: sketchtool 49.1 (51147) - http://www.bohemiancoding.com/sketch -->
    <title>57161529-56ED-483D-AC8D-20AF844E0AEC</title>
    <desc>Created with sketchtool.</desc>
    <defs></defs>
    <g id="Support" stroke="none" stroke-width="1" fill="none" fill-rule="evenodd">
        <g id="FAQ" transform="translate(-496.000000, -566.000000)" fill="#FFFFFF" fill-rule="nonzero">
            <g id="Stacked-Group" transform="translate(227.000000, 566.000000)">
                <g id="Stacked-Group-2" transform="translate(227.000000, 0.000000)">
                    <g id="noun_568541_cc" transform="translate(42.000000, 0.000000)">
                        <path d="M30.000382,0 C13.458615,0 0,13.4572585 0,30 C0,46.5419775 13.458615,60 30.000382,60 C46.5436767,60 60,46.5419775 60,30 C60,13.4572585 46.5436767,0 30.000382,0 M30.000382,55.1842326 C16.1147397,55.1842326 4.81799778,43.886583 4.81799778,30 C4.81799778,16.113417 16.1147397,4.81653128 30.000382,4.81653128 C43.8867881,4.81653128 55.1827661,16.113417 55.1827661,30 C55.1827661,43.886583 43.8867881,55.1842326 30.000382,55.1842326 M29.5237004,39.6697308 C28.4542225,39.6697308 27.5421107,40.0478725 26.7873649,40.8011 C26.033383,41.5558555 25.6560101,42.4679789 25.6560101,43.5359426 C25.6560101,44.605434 26.033383,45.5175575 26.7873649,46.2723129 C27.5421107,47.0263044 28.4542225,47.4036821 29.5237004,47.4036821 C30.5924143,47.4036821 31.5052901,47.0263044 32.2607998,46.2723129 C33.0140178,45.5175575 33.3913907,44.605434 33.3913907,43.5359426 C33.3913907,42.4679789 33.0140178,41.5558555 32.2607998,40.8011 C31.506054,40.0478725 30.5931783,39.6697308 29.5237004,39.6697308 M38.003896,14.8048178 C36.8702494,14.0523542 35.5884038,13.4969825 34.159123,13.1356472 C32.7298423,12.7750758 31.2616019,12.59479 29.7559299,12.59479 C28.3136626,12.59479 26.9332722,12.8293143 25.6147588,13.3006544 C24.2970093,13.7704668 23.1274588,14.4052863 22.1083992,15.2035853 C21.0878118,16.0034122 20.2719529,16.9277584 19.6608227,17.9789157 C19.0496925,19.0285452 18.7433635,20.1339411 18.7433635,21.2951033 C18.7433635,22.2362558 19.0489286,22.9497594 19.6608227,23.4371419 C20.2719529,23.9229966 20.9869753,24.1666879 21.8028341,24.1666879 C22.5552882,24.1666879 23.1442649,24.0093199 23.5674726,23.6953477 C23.9922081,23.3821395 24.3443719,22.9986504 24.6270196,22.5425887 C24.9096673,22.0872909 25.1594668,21.5945609 25.3794737,21.0605791 C25.5994805,20.5273612 25.8882396,20.0323394 26.2503342,19.5778055 C26.6124289,19.1232716 27.0814713,18.7397825 27.6635728,18.4250465 C28.2433826,18.1110743 29.0347962,17.9544702 30.0393415,17.9544702 C31.4518162,17.9544702 32.557198,18.3074024 33.3570146,19.0140307 C34.1568313,19.7198951 34.5578855,20.7168139 34.5578855,22.0017316 C34.5578855,22.7870439 34.3546847,23.4776298 33.9521027,24.0727254 C33.5479928,24.6693489 33.0407547,25.2422907 32.4288606,25.791551 C31.8169665,26.3400474 31.1592376,26.8732653 30.4533822,27.3919686 C29.7475268,27.9091442 29.0875062,28.4660436 28.4756121,29.0626671 C27.8644819,29.6585266 27.3549521,30.3101525 26.9477866,31.0167808 C26.5390932,31.7226452 26.3366564,32.5461537 26.3366564,33.4873062 C26.3366564,34.2390059 26.5864558,34.9532734 27.0891104,35.627817 C27.5902372,36.3038884 28.3434552,36.6407782 29.3487644,36.6407782 C30.1325389,36.6407782 30.7215156,36.513967 31.1141668,36.2634005 C31.5052901,36.0135978 31.8108552,35.6919865 32.031626,35.2985664 C32.2493411,34.9066741 32.4311524,34.4750579 32.5717123,34.0037178 C32.7138001,33.5346693 32.9254039,33.09465 33.2072877,32.6859515 C33.4578511,32.3093377 33.8428631,31.9334878 34.3623238,31.556874 C34.8802567,31.1802602 35.4531912,30.7639225 36.0811275,30.3093886 C36.7090638,29.8548547 37.3614453,29.3521937 38.0375081,28.8029335 C38.7120431,28.255201 39.325465,27.6501744 39.8739544,26.9916732 C40.4232077,26.3316442 40.8708605,25.5952229 41.216913,24.7793537 C41.5614377,23.9634845 41.7363737,23.0383744 41.7363737,22.0017316 C41.7363737,20.3386723 41.3979604,18.9116651 40.7203697,17.7214739 C40.0420152,16.5289909 39.1360147,15.5572815 38.003896,14.8048178" id="Shape"></path>
                    </g>
                </g>
            </g>
        </g>
    </g>
</svg>