<?xml version="1.0" encoding="UTF-8"?>
<svg width="62px" height="60px" viewBox="0 0 62 60" version="1.1" xmlns="http://www.w3.org/2000/svg" xmlns:xlink="http://www.w3.org/1999/xlink">
    <!-- Generator: sketchtool 49.1 (51147) - http://www.bohemiancoding.com/sketch -->
    <title>57FDAFB9-2AA3-4708-BD3F-DF7DE2762631</title>
    <desc>Created with sketchtool.</desc>
    <defs></defs>
    <g id="Support" stroke="none" stroke-width="1" fill="none" fill-rule="evenodd">
        <g id="FAQ" transform="translate(-249.000000, -566.000000)" fill="#FFFFFF" fill-rule="nonzero">
            <g id="Stacked-Group" transform="translate(227.000000, 566.000000)">
                <g id="noun_89616">
                    <g transform="translate(22.000000, 0.000000)">
                        <path d="M11.5335624,42.0338983 C11.1903016,41.4237288 10.7783887,40.8135593 10.5037801,40.2033898 C9.47399771,38.3050847 7.0711722,37.4915254 5.1489118,38.5084746 C3.22665139,39.5254237 2.40282551,41.8305085 3.43260787,43.7966102 C3.84452081,44.6101695 4.32508591,45.4915254 4.87430317,46.2372881 C5.6294769,47.3898305 6.93386789,48.0677966 8.16960672,48.0677966 C8.92478045,48.0677966 9.67995418,47.8644068 10.2978236,47.4576271 C12.1514318,46.3050847 12.7006491,43.8644068 11.5335624,42.0338983 Z M20.1150821,49.7627119 C19.4972127,49.4237288 18.8793433,49.0847458 18.2614738,48.6779661 C16.4078656,47.5254237 13.9363879,48.0677966 12.7693013,49.8305085 C11.6022146,51.6610169 12.1514318,54.1016949 13.9363879,55.2542373 C14.7602138,55.7966102 15.5840397,56.2711864 16.4078656,56.6779661 C16.9570829,56.9491525 17.6436044,57.0847458 18.2614738,57.0847458 C19.7031691,57.0847458 21.0762123,56.3389831 21.7627339,54.9830508 C22.7925162,53.1525424 22.0373425,50.7118644 20.1150821,49.7627119 Z M30.1382971,7.86440678 L30.3442535,7.86440678 C32.5411226,7.86440678 34.3260787,6.10169492 34.3260787,3.93220339 C34.3260787,1.76271186 32.5411226,0 30.3442535,0 L30.0009927,0 C27.8041237,0.0677966102 26.0878198,1.96610169 26.2251241,4.13559322 C26.3624284,6.23728814 28.0787323,7.86440678 30.1382971,7.86440678 Z M32.1292096,52.1355932 C31.5799924,52.2033898 31.0307751,52.2033898 30.4129057,52.2033898 L29.3144712,52.2033898 C27.1176021,52.1355932 25.2639939,53.7627119 25.1266896,55.9322034 C25.0580374,58.1016949 26.7056892,59.9322034 28.9025582,60 C29.3831233,60 29.8636884,60 30.4129057,60 C31.1680794,60 31.9232532,60 32.6784269,59.9322034 C34.8752959,59.7966102 36.5229477,57.8983051 36.3169912,55.7288136 C36.1796869,53.6271186 34.2574265,52 32.1292096,52.1355932 Z M4.1877816,35.2542373 C6.38465063,35.1864407 8.10095456,33.2881356 7.96365025,31.1864407 C7.96365025,30.8474576 7.96365025,29.8983051 7.96365025,29.8983051 C7.96365025,27.7288136 6.17869416,25.9661017 3.98182512,25.9661017 C1.78495609,25.9661017 0,27.7288136 0,29.8983051 C0,29.8983051 0,31.0508475 0,31.5932203 C0.0686521573,33.6949153 1.85360825,35.3220339 3.98182512,35.3220339 L4.1877816,35.3220339 L4.1877816,35.2542373 Z M56.9812906,33.0169492 C54.8530737,32.4745763 52.6562047,33.6949153 52.1069874,35.7966102 C51.8323788,36.8813559 51.4204658,37.9661017 50.9399007,38.9830508 C50.0474227,40.9491525 50.9399007,43.2542373 52.9308133,44.1355932 C53.4800305,44.3389831 54.0292478,44.4745763 54.5784651,44.4745763 C56.0888125,44.4745763 57.5305078,43.5932203 58.2170294,42.1694915 C58.8348988,40.7457627 59.3841161,39.2542373 59.7273769,37.8305085 C60.3452463,35.7288136 59.0408553,33.559322 56.9812906,33.0169492 Z M17.025735,11.4576271 C17.7122566,11.4576271 18.3987782,11.3220339 19.0852997,10.9152542 L19.2912562,10.779661 C21.2135166,9.69491525 21.9000382,7.3220339 20.8016037,5.42372881 C19.7031691,3.52542373 17.3003436,2.84745763 15.3780832,3.93220339 L14.9661703,4.13559322 C13.112562,5.22033898 12.4946926,7.66101695 13.6617793,9.49152542 C14.416953,10.779661 15.6526919,11.4576271 17.025735,11.4576271 Z M61.7869416,7.38983051 C61.7869416,5.22033898 60.0019855,3.45762712 57.8737686,3.45762712 L43.5941199,3.45762712 C41.3972509,3.45762712 39.6122948,5.22033898 39.6122948,7.38983051 L39.6122948,21.4237288 C39.6122948,23.5932203 41.3972509,25.3559322 43.5941199,25.3559322 C45.7909889,25.3559322 47.575945,23.5932203 47.575945,21.4237288 L47.575945,15.7288136 C49.6355097,18.1694915 51.1458572,20.9491525 52.0383352,24 C52.2442917,24.8135593 52.3129439,25.0847458 52.381596,25.6271186 C52.7248568,27.4576271 54.4411607,28.7457627 56.2261168,28.7457627 C56.5007255,28.7457627 56.7753341,28.7457627 57.0499427,28.6779661 C59.1781596,28.2711864 60.5512027,26.1694915 60.1392898,24.0677966 C60.0706376,23.5254237 59.8646812,22.8474576 59.5900725,21.8305085 C58.491638,18.0338983 56.5693776,14.440678 54.0979,11.3220339 L57.8051165,11.3220339 C60.0019855,11.3220339 61.7869416,9.55932203 61.7869416,7.38983051 Z M44.6925544,47.1186441 C43.8000764,47.8644068 42.9075983,48.5423729 41.877816,49.0847458 C40.0242077,50.1694915 39.4063383,52.6101695 40.5047728,54.440678 C41.2599465,55.6610169 42.5643375,56.3389831 43.8687285,56.3389831 C44.5552501,56.3389831 45.2417717,56.2033898 45.9282932,55.7966102 C47.3013364,54.9830508 48.5370752,54.1016949 49.7728141,53.0847458 C51.4204658,51.7288136 51.6950745,49.220339 50.2533792,47.5254237 C48.9489882,45.9661017 46.4088583,45.7627119 44.6925544,47.1186441 Z M5.42352043,20.5423729 C7.27712868,21.4915254 9.54264987,21.1525424 10.8470409,19.0508475 L10.9843452,18.779661 C12.0827797,16.9491525 11.4649103,14.5084746 9.61130202,13.4237288 C7.75769378,12.3389831 5.28621611,12.9491525 4.1877816,14.8474576 L3.98182512,15.1864407 C2.88339061,17.0847458 3.50126002,19.5254237 5.42352043,20.5423729 Z" id="Shape"></path>
                    </g>
                </g>
            </g>
        </g>
    </g>
</svg>