<?xml version="1.0" encoding="UTF-8"?>
<svg width="64px" height="78px" viewBox="0 0 64 78" version="1.1" xmlns="http://www.w3.org/2000/svg" xmlns:xlink="http://www.w3.org/1999/xlink">
    <!-- Generator: sketchtool 49.1 (51147) - http://www.bohemiancoding.com/sketch -->
    <title>A799EB64-6085-4BAA-BD9B-68FF7095B552</title>
    <desc>Created with sketchtool.</desc>
    <defs>
        <filter x="-12.5%" y="-7.1%" width="126.7%" height="120.0%" filterUnits="objectBoundingBox" id="filter-1">
            <feOffset dx="0" dy="2" in="SourceAlpha" result="shadowOffsetOuter1"></feOffset>
            <feGaussianBlur stdDeviation="2" in="shadowOffsetOuter1" result="shadowBlurOuter1"></feGaussianBlur>
            <feColorMatrix values="0 0 0 0 0   0 0 0 0 0   0 0 0 0 0  0 0 0 0.5 0" type="matrix" in="shadowBlurOuter1" result="shadowMatrixOuter1"></feColorMatrix>
            <feMerge>
                <feMergeNode in="shadowMatrixOuter1"></feMergeNode>
                <feMergeNode in="SourceGraphic"></feMergeNode>
            </feMerge>
        </filter>
    </defs>
    <g id="Support" stroke="none" stroke-width="1" fill="none" fill-rule="evenodd">
        <g id="FAQ" transform="translate(-676.000000, -1187.000000)" fill="#000000" fill-rule="nonzero">
            <g id="Stacked-Group-2" transform="translate(203.000000, 1189.000000)">
                <g id="Group-4-Copy" transform="translate(352.000000, 0.000000)">
                    <g id="noun_869788_cc" filter="url(#filter-1)" transform="translate(125.000000, 0.000000)">
                        <g id="Group">
                            <path d="M46.6911765,9.33333333 L46.6911765,0 L0,0 L0,60.6666667 L9.33823529,60.6666667 L9.33823529,70 L56.0294118,70 L56.0294118,9.33333333 L46.6911765,9.33333333 Z M4.66911765,56 L4.66911765,4.66666667 L42.0220588,4.66666667 L42.0220588,9.33333333 L9.33823529,9.33333333 L9.33823529,56 L4.66911765,56 Z M51.3602941,65.3333333 L14.0073529,65.3333333 L14.0073529,14 L51.3602941,14 L51.3602941,65.3333333 Z" id="Shape"></path>
                            <rect id="Rectangle-path" x="21.0110294" y="21" width="4.66911765" height="4.66666667"></rect>
                            <rect id="Rectangle-path" x="30.3492647" y="21" width="14.0073529" height="4.66666667"></rect>
                            <rect id="Rectangle-path" x="21.0110294" y="31.8888889" width="4.66911765" height="4.66666667"></rect>
                            <rect id="Rectangle-path" x="30.3492647" y="31.8888889" width="14.0073529" height="4.66666667"></rect>
                            <rect id="Rectangle-path" x="21.0110294" y="42.7777778" width="4.66911765" height="4.66666667"></rect>
                            <rect id="Rectangle-path" x="30.3492647" y="42.7777778" width="14.0073529" height="4.66666667"></rect>
                            <rect id="Rectangle-path" x="21.0110294" y="53.6666667" width="4.66911765" height="4.66666667"></rect>
                            <rect id="Rectangle-path" x="30.3492647" y="53.6666667" width="14.0073529" height="4.66666667"></rect>
                        </g>
                    </g>
                </g>
            </g>
        </g>
    </g>
</svg>