<?xml version="1.0" encoding="UTF-8"?>
<svg width="79px" height="70px" viewBox="0 0 79 70" version="1.1" xmlns="http://www.w3.org/2000/svg" xmlns:xlink="http://www.w3.org/1999/xlink">
    <!-- Generator: sketchtool 49.1 (51147) - http://www.bohemiancoding.com/sketch -->
    <title>29AE1119-EE26-4988-B3AD-94CD7ADA9EAB</title>
    <desc>Created with sketchtool.</desc>
    <defs></defs>
    <g id="Support" stroke="none" stroke-width="1" fill="none" fill-rule="evenodd">
        <g id="FAQ" transform="translate(-294.000000, -1193.000000)" fill="#000000" fill-rule="nonzero">
            <g id="Stacked-Group-2" transform="translate(203.000000, 1189.000000)">
                <g id="Group-3-Copy" transform="translate(0.000000, 4.000000)">
                    <g id="noun_380822_cc" transform="translate(91.000000, 0.000000)">
                        <g id="Group">
                            <path d="M37.9038286,18.5034062 C33.8863722,18.5034062 30.5676037,21.8190094 30.5676037,25.8326342 C30.5676037,29.8462591 33.8863722,33.1618623 37.9038286,33.1618623 C41.9212851,33.1618623 45.2400535,29.8462591 45.2400535,25.8326342 C45.2400535,21.8190094 41.9212851,18.5034062 37.9038286,18.5034062 Z M37.9038286,29.584501 C35.8077644,29.584501 34.1483802,27.9266994 34.1483802,25.8326342 C34.1483802,23.7385691 35.8077644,22.0807675 37.9038286,22.0807675 C39.9998929,22.0807675 41.6592771,23.7385691 41.6592771,25.8326342 C41.6592771,27.9266994 39.9998929,29.584501 37.9038286,29.584501 Z" id="Shape"></path>
                            <path d="M69.7814726,0.0930834449 L8.73360107,0.0930834449 C3.93012048,0.0930834449 0,4.0194556 0,8.8183549 L0,44.242957 C0,49.0418563 3.93012048,52.9682285 8.73360107,52.9682285 L42.7946452,52.9682285 L60.1745114,69.8952551 L60.1745114,52.9682285 L69.6941365,52.9682285 C74.4976171,52.9682285 78.4277376,49.0418563 78.4277376,44.242957 L78.4277376,8.8183549 C78.5150736,4.0194556 74.5849531,0.0930834449 69.7814726,0.0930834449 Z M50.2182062,25.8326342 C50.2182062,26.7051614 50.1308701,27.4904358 49.9561981,28.2757102 L51.7029183,29.4972483 C52.4016064,29.9335118 52.5762784,30.8932917 52.1395984,31.5913134 L49.9561981,35.3431801 C49.5195181,36.0412018 48.646158,36.30296 47.9474699,35.9539491 L46.0260776,35.081422 C44.8033735,36.1284546 43.3186613,37.0009817 41.7466131,37.524498 L41.5719411,39.7058159 C41.4846051,40.4910903 40.785917,41.1018593 39.9998929,41.1018593 L35.7204284,41.1018593 C34.9344043,41.1018593 34.2357162,40.4910903 34.1483802,39.7058159 L33.9737082,37.524498 C32.40166,37.0009817 30.9169478,36.1284546 29.6942436,35.081422 L27.7728514,35.9539491 C27.0741633,36.30296 26.1134672,36.0412018 25.7641232,35.3431801 L23.5807229,31.5913134 C23.1440428,30.8932917 23.4060509,30.0207645 24.0174029,29.4972483 L25.7641232,28.2757102 C25.5894511,27.4904358 25.5021151,26.6179087 25.5021151,25.8326342 C25.5021151,24.9601071 25.5894511,24.1748327 25.7641232,23.3895582 L24.0174029,22.1680202 C23.3187149,21.7317567 23.1440428,20.7719768 23.5807229,20.0739551 L25.7641232,16.3220884 C26.2008032,15.6240666 27.0741633,15.3623085 27.7728514,15.7113194 L29.6942436,16.5838465 C30.9169478,15.5368139 32.40166,14.6642868 33.9737082,14.1407705 L34.1483802,11.9594526 C34.2357162,11.1741782 34.9344043,10.5634092 35.7204284,10.5634092 L39.9998929,10.5634092 C40.785917,10.5634092 41.4846051,11.1741782 41.5719411,11.9594526 L41.7466131,14.1407705 C43.3186613,14.6642868 44.8033735,15.5368139 46.0260776,16.5838465 L47.9474699,15.7113194 C48.646158,15.3623085 49.6068541,15.6240666 49.9561981,16.3220884 L52.1395984,20.0739551 C52.5762784,20.7719768 52.3142704,21.6445039 51.7029183,22.1680202 L49.9561981,23.3895582 C50.1308701,24.1748327 50.2182062,24.9601071 50.2182062,25.8326342 Z" id="Shape"></path>
                        </g>
                    </g>
                </g>
            </g>
        </g>
    </g>
</svg>