<?xml version="1.0" encoding="UTF-8"?>
<svg width="96px" height="70px" viewBox="0 0 96 70" version="1.1" xmlns="http://www.w3.org/2000/svg" xmlns:xlink="http://www.w3.org/1999/xlink">
    <!-- Generator: sketchtool 49.1 (51147) - http://www.bohemiancoding.com/sketch -->
    <title>5FA75C8F-C409-4A4C-835B-6957D809EA37</title>
    <desc>Created with sketchtool.</desc>
    <defs></defs>
    <g id="Support" stroke="none" stroke-width="1" fill="none" fill-rule="evenodd">
        <g id="FAQ" transform="translate(-1087.000000, -1189.000000)" fill="#000000" fill-rule="nonzero">
            <g id="Stacked-Group-2" transform="translate(203.000000, 1189.000000)">
                <g id="Group-2-Copy" transform="translate(806.000000, 0.000000)">
                    <g id="noun_483364_cc" transform="translate(78.000000, 0.000000)">
                        <path d="M90.1940501,35.8921923 L43.0448852,63.3627529 L35.1366388,58.750907 L6.00626305,42.0079011 L6.00626305,34.288072 L42.9447808,55.6429238 L95.7998956,24.8638651 L52.9552192,0 L0,30.7790588 L0,45.1158842 L32.0334029,63.563268 L43.0448852,69.8794918 L95.9,39.100433 L90.1940501,35.8921923 Z M37.3389353,28.5733933 C38.9406054,27.7713332 40.4421712,27.3703031 41.7435282,27.169788 C43.5454071,26.969273 46.0480167,27.0695305 49.3514614,27.3703031 C50.9531315,27.5708181 52.5548017,27.5708181 54.0563674,27.3703031 C55.5579332,27.169788 56.8592902,26.6685004 58.0605428,26.0669553 C59.2617954,25.3651527 59.9625261,24.5630925 60.0626305,23.7610323 C60.1627349,22.9589722 59.5621086,22.156912 58.3608559,21.4551094 C57.3598121,20.8535643 56.2586639,20.5527917 54.9573069,20.5527917 C54.1564718,20.5527917 53.3556367,20.6530492 52.5548017,20.8535643 C51.6538622,21.1543368 50.4526096,21.0540793 49.6517745,20.5527917 C49.6517745,20.5527917 49.6517745,20.5527917 49.6517745,20.5527917 L44.9468685,17.8458386 C44.3462422,17.4448086 44.3462422,16.943521 45.0469729,16.6427484 C47.7497912,15.2391431 50.6528184,14.7378555 53.8561587,14.9383705 C57.4599165,15.2391431 60.8634656,16.3419758 64.1669102,18.2468687 C67.6705637,20.2520191 69.572547,22.4576846 69.8728601,24.66335 C70.1731733,26.8690155 68.7717119,28.8741659 65.7685804,30.5785437 C63.9667015,31.6813765 61.6643006,32.2829216 58.9614823,32.5836941 C56.2586639,32.8844667 53.6559499,32.7842092 51.0532359,32.2829216 C49.4515658,32.0824065 48.1502088,32.0824065 47.1491649,32.3831791 C46.4484342,32.5836941 45.6475992,32.7842092 44.8467641,33.1852393 C44.2461378,33.4860118 43.2450939,33.4860118 42.6444676,33.0849817 L37.4390397,30.0772561 C36.6382046,29.5759685 36.6382046,28.8741659 37.3389353,28.5733933 Z M28.5297495,33.6865269 L31.2325678,32.0824065 C32.1335073,31.5811189 33.6350731,31.5811189 34.5360125,32.0824065 L38.7403967,34.488587 C39.6413361,34.9898746 39.6413361,35.8921923 38.7403967,36.3934799 L36.0375783,37.9976002 C35.1366388,38.4988879 33.6350731,38.4988879 32.7341336,37.9976002 L28.5297495,35.5914198 C27.62881,35.0901322 27.62881,34.1878145 28.5297495,33.6865269 Z" id="Shape"></path>
                    </g>
                </g>
            </g>
        </g>
    </g>
</svg>