<?xml version="1.0" encoding="UTF-8"?>
<svg width="44px" height="60px" viewBox="0 0 44 60" version="1.1" xmlns="http://www.w3.org/2000/svg" xmlns:xlink="http://www.w3.org/1999/xlink">
    <!-- Generator: sketchtool 49.1 (51147) - http://www.bohemiancoding.com/sketch -->
    <title>B5D2CE17-906E-4514-B9E5-7350F4816031</title>
    <desc>Created with sketchtool.</desc>
    <defs></defs>
    <g id="Support" stroke="none" stroke-width="1" fill="none" fill-rule="evenodd">
        <g id="FAQ" transform="translate(-807.000000, -566.000000)" fill="#FFFFFF" fill-rule="nonzero">
            <g id="Stacked-Group" transform="translate(227.000000, 566.000000)">
                <g id="Stacked-Group-3" transform="translate(490.000000, 0.000000)">
                    <g id="noun_1234507_cc" transform="translate(90.000000, 0.000000)">
                        <path d="M30.7625275,13.6612022 C31.4193786,13.6612022 31.8572794,13.2240437 31.8572794,12.568306 L31.8572794,6.66666667 C31.8572794,3.82513661 29.7772508,0 26.930896,0 L5.58323453,0 C2.62740449,0 0,3.82513661 0,6.66666667 L0,56.284153 C0,59.2349727 2.62740449,60 5.58323453,60 L26.8214208,60 C29.7772508,60 31.7478042,59.1256831 31.7478042,56.284153 L31.7478042,45.3551913 C31.7478042,44.6994536 31.3099035,44.2622951 30.6530523,44.2622951 C29.9962012,44.2622951 29.5583005,44.6994536 29.5583005,45.3551913 L29.5583005,49.2896175 L2.18950374,49.2896175 L2.18950374,8.85245902 L29.5583005,8.85245902 L29.5583005,12.568306 C29.5583005,13.2240437 30.1056764,13.6612022 30.7625275,13.6612022 C30.7625275,13.6612022 30.7625275,13.6612022 30.7625275,13.6612022 Z M16.0928525,53.1147541 C17.4065547,53.1147541 18.5013066,54.2076503 18.5013066,55.6284153 C18.5013066,56.9398907 17.4065547,58.0327869 15.9833773,58.0327869 C14.669675,58.0327869 13.5749232,56.9398907 13.5749232,55.6284153 C13.5749232,54.2076503 14.669675,53.1147541 16.0928525,53.1147541 C16.0928525,53.1147541 16.0928525,53.1147541 16.0928525,53.1147541 Z M18.8297321,5.13661202 L13.3559728,5.13661202 C12.8085969,5.13661202 12.3706961,4.80874317 12.3706961,4.3715847 C12.3706961,3.93442623 12.6991217,3.60655738 13.3559728,3.60655738 L18.8297321,3.60655738 C19.3771081,3.60655738 19.8150088,3.93442623 19.8150088,4.48087432 C19.8150088,5.0273224 19.3771081,5.13661202 18.8297321,5.13661202 Z" id="Shape"></path>
                        <path d="M31.7298503,16.8710359 C25.0166527,16.8710359 19.6240841,22.2390928 19.6240841,28.9217759 C19.6240841,35.604459 25.0166527,40.9725159 31.7298503,40.9725159 C38.4430479,40.9725159 43.8356164,35.604459 43.8356164,28.9217759 C43.8356164,22.2390928 38.3329955,16.8710359 31.7298503,16.8710359 Z M26.0071244,30.784163 C25.0166527,30.784163 24.1362333,29.9077455 24.1362333,28.9217759 C24.1362333,27.9358063 25.0166527,27.0593888 26.0071244,27.0593888 C26.9975962,27.0593888 27.8780156,27.9358063 27.8780156,28.9217759 C27.8780156,28.9217759 27.8780156,28.9217759 27.8780156,28.9217759 C27.8780156,29.9077455 26.9975962,30.784163 26.0071244,30.784163 Z M31.7298503,30.784163 C30.7393785,30.784163 29.8589591,29.9077455 29.8589591,28.9217759 C29.8589591,27.9358063 30.7393785,27.0593888 31.7298503,27.0593888 C32.720322,27.0593888 33.6007414,27.9358063 33.6007414,28.9217759 C33.6007414,28.9217759 33.6007414,28.9217759 33.6007414,28.9217759 C33.6007414,29.9077455 32.720322,30.784163 31.7298503,30.784163 Z M37.3425237,30.784163 C36.3520519,30.784163 35.4716325,29.9077455 35.4716325,28.9217759 C35.4716325,27.9358063 36.3520519,27.0593888 37.3425237,27.0593888 C38.3329955,27.0593888 39.2134148,27.9358063 39.2134148,28.9217759 C39.2134148,28.9217759 39.2134148,28.9217759 39.2134148,28.9217759 C39.2134148,29.9077455 38.4430479,30.784163 37.3425237,30.784163 Z" id="Shape"></path>
                    </g>
                </g>
            </g>
        </g>
    </g>
</svg>