<?xml version="1.0" encoding="UTF-8"?>
<svg width="102px" height="60px" viewBox="0 0 102 60" version="1.1" xmlns="http://www.w3.org/2000/svg" xmlns:xlink="http://www.w3.org/1999/xlink">
    <!-- Generator: sketchtool 49.1 (51147) - http://www.bohemiancoding.com/sketch -->
    <title>13355944-3093-43CB-AF95-786EF0854E25</title>
    <desc>Created with sketchtool.</desc>
    <defs></defs>
    <g id="Support" stroke="none" stroke-width="1" fill="none" fill-rule="evenodd">
        <g id="FAQ" transform="translate(-1066.000000, -566.000000)" fill="#FFFFFF" fill-rule="nonzero">
            <g id="Stacked-Group" transform="translate(227.000000, 566.000000)">
                <g id="Stacked-Group-4" transform="translate(833.000000, 0.000000)">
                    <g id="noun_1126060_cc" transform="translate(6.000000, 0.000000)">
                        <path d="M6.28269231,44.6604527 L6.80664336,44.6604527 C9.46416084,38.8940237 15.3125874,34.8946503 22.0956294,34.8946503 C28.8833916,34.8946503 34.7270979,38.8987233 37.3846154,44.6604527 L66.7541958,44.6604527 C66.9194056,44.2703846 67.0138112,43.8474191 67.0138112,43.4009556 L67.0138112,8.08803948 C67.0138112,7.20451163 66.6550699,6.39617765 66.0791958,5.82282447 C65.4844406,5.24007206 64.6772727,4.87820161 63.7993007,4.87820161 L9.24230769,4.87820161 C8.3548951,4.87820161 7.54772727,5.23537244 6.97185315,5.81342524 C6.38181818,6.40087726 6.02307692,7.20451163 6.02307692,8.08803948 L6.02307692,43.4009556 C6.02307692,43.8474191 6.11748252,44.2703846 6.28269231,44.6604527 Z M10.1863636,51.6393828 L5.28199301,51.6393828 L3.50716783,51.6393828 C1.58129371,51.6393828 0,50.069711 0,48.1475679 C0,47.0337589 0.538111888,46.0327407 1.36416084,45.3935929 C1.20367133,44.7544451 1.11398601,44.0917992 1.11398601,43.4056552 L1.11398601,8.08803948 C1.11398601,5.86982063 2.02972028,3.84898567 3.49772727,2.38270541 C4.9798951,0.907025926 7.01433566,0 9.23758741,0 L63.7898601,0 C66.0225524,0 68.056993,0.907025926 69.5297203,2.37330618 C70.9977273,3.84428605 71.9134615,5.86982063 71.9134615,8.08803948 L72.0550699,14.2868332 L82.4963287,14.2868332 C95.2174825,14.2868332 97.6909091,25.359129 97.9269231,44.6557531 L98.4555944,44.6557531 C100.381469,44.6557531 101.958042,46.2254249 101.958042,48.1381687 C101.958042,50.0603117 100.381469,51.6299836 98.4555944,51.6299836 L95.495979,51.6299836 C95.495979,45.2385055 90.3083916,39.7728519 83.5867133,39.7728519 C76.865035,39.7728519 71.6774476,45.2385055 71.6774476,51.6299836 L38.9187063,51.6299836 L34.0096154,51.6299836 C33.9435315,44.9518289 28.8645105,39.7775515 22.0956294,39.7775515 C15.2795455,39.7775515 10.1863636,45.3418971 10.1863636,51.6393828 Z M91.9274476,29.6733767 C91.1816434,25.6740033 89.9402098,22.2338842 87.8868881,20.6407143 C86.366958,19.4658103 84.375,19.1744341 82.501049,19.1744341 L76.8225524,19.1744341 L76.8225524,29.6733767 L91.9274476,29.6733767 Z M83.581993,43.2646667 C78.9372378,43.2646667 75.1751748,47.0102608 75.1751748,51.6346832 C75.1751748,56.2544059 78.9372378,60 83.581993,60 C88.222028,60 91.9888112,56.2544059 91.9888112,51.6346832 C91.9935315,47.0102608 88.2267483,43.2646667 83.581993,43.2646667 Z M22.0956294,43.2646667 C26.7403846,43.2646667 30.5024476,47.0102608 30.5024476,51.6346832 C30.5024476,56.2544059 26.7403846,60 22.0956294,60 C17.4508741,60 13.6888112,56.2544059 13.6888112,51.6346832 C13.6888112,47.0102608 17.4508741,43.2646667 22.0956294,43.2646667 Z M22.0956294,48.1475679 C20.1603147,48.1475679 18.5931818,49.7078405 18.5931818,51.6346832 C18.5931818,53.5568262 20.1603147,55.1170988 22.0956294,55.1170988 C24.0309441,55.1170988 25.5980769,53.5568262 25.5980769,51.6346832 C25.6027972,49.7078405 24.0356643,48.1475679 22.0956294,48.1475679 Z M83.581993,48.1475679 C81.6466783,48.1475679 80.0795455,49.7078405 80.0795455,51.6346832 C80.0795455,53.5568262 81.6466783,55.1170988 83.581993,55.1170988 C85.5173077,55.1170988 87.0844406,53.5568262 87.0844406,51.6346832 C87.0844406,49.7078405 85.5173077,48.1475679 83.581993,48.1475679 Z" id="Shape"></path>
                    </g>
                </g>
            </g>
        </g>
    </g>
</svg>