<?xml version="1.0" encoding="UTF-8"?>
<svg width="167px" height="18px" viewBox="0 0 167 18" version="1.1" xmlns="http://www.w3.org/2000/svg" xmlns:xlink="http://www.w3.org/1999/xlink">
    <!-- Generator: sketchtool 49.3 (51167) - http://www.bohemiancoding.com/sketch -->
    <title>12EC2507-60DB-493D-8B8C-464C96652812</title>
    <desc>Created with sketchtool.</desc>
    <defs></defs>
    <g id="Community" stroke="none" stroke-width="1" fill="none" fill-rule="evenodd">
        <g id="Community-6.0-(1)" transform="translate(-62.000000, -51.000000)">
            <g id="00-Menu" transform="translate(62.000000, 48.000000)">
                <g id="Brandlogo/FlowMotion-Horizontal-Dark">
                    <g id="fm-logo-horizontal-dark">
                        <rect id="Rectangle-path" x="0" y="0" width="167" height="24"></rect>
                        <g id="Group" transform="translate(0.000000, 3.000000)" fill="#000000" fill-rule="nonzero">
                            <path d="M161.524066,5.55936585 C158.717063,5.55936585 156.441743,7.83878049 156.441743,10.6498537 L156.441743,17.8156098 L158.596087,17.8156098 L158.596087,10.6498537 C158.596525,9.03073171 159.907102,7.71804878 161.524066,7.71804878 C163.141029,7.71804878 164.451606,9.03073171 164.452483,10.6498537 L164.452483,17.8156098 L166.606388,17.8156098 L166.606388,10.6498537 C166.606388,7.83878049 164.331068,5.55936585 161.524066,5.55936585 Z M148.033446,5.55936585 C151.458042,5.55936585 154.244005,8.34980488 154.244005,11.7799024 C154.244005,15.21 151.458042,18 148.033446,18 C144.60885,18 141.823325,15.21 141.823325,11.7799024 C141.823325,8.34980488 144.60885,5.55936585 148.033446,5.55936585 Z M148.033446,15.8540488 C150.263619,15.8540488 152.078265,14.0263902 152.078265,11.7799024 C152.078265,9.50795122 150.301753,7.72858537 148.033446,7.72858537 C145.790562,7.72858537 143.965835,9.54614634 143.965835,11.7799024 C143.965835,14.0263902 145.790562,15.8540488 148.033446,15.8540488 Z M137.299423,17.8156098 L139.453766,17.8156098 L139.453766,5.7437561 L137.299423,5.7437561 L137.299423,17.8156098 Z M137.299423,4.23570732 L139.453766,4.23570732 L139.453766,2.07790244 L137.299423,2.07790244 L137.299423,4.23570732 Z M135.044703,7.71717073 L135.044703,5.7437561 L131.454861,5.7437561 L131.454861,2.07790244 L129.300517,2.07790244 L129.300517,13.7959024 C129.300517,16.0160488 131.097192,17.8156098 133.313777,17.8156098 L135.044703,17.8156098 L135.044703,15.6578049 L133.318598,15.6578049 C132.289423,15.6578049 131.454861,14.8219024 131.454861,13.7910732 L131.454861,7.71717073 L135.044703,7.71717073 Z M120.869428,5.55936585 C124.294024,5.55936585 127.079549,8.34980488 127.079549,11.7799024 C127.079549,15.21 124.294024,18 120.869428,18 C117.444832,18 114.658869,15.21 114.658869,11.7799024 C114.658869,8.34980488 117.444832,5.55936585 120.869428,5.55936585 Z M120.869428,15.8540488 C123.099601,15.8540488 124.913808,14.0263902 124.913808,11.7799024 C124.913808,9.50795122 123.137297,7.72858537 120.869428,7.72858537 C118.626543,7.72858537 116.801816,9.54614634 116.801816,11.7799024 C116.801816,14.0263902 118.626543,15.8540488 120.869428,15.8540488 Z M103.787213,14.1405366 L96.9117218,0.210292683 L95.1597559,0.210292683 L95.1597559,17.8156098 L97.3136614,17.8156098 L97.3136614,5.38068293 L103.181016,17.262439 L104.415764,17.262439 L110.283118,5.38068293 L110.283118,17.8156098 L112.437462,17.8156098 L112.437462,0.210292683 L110.662265,0.210292683 L103.787213,14.1405366 Z M87.6920945,14.4781463 L84.5681864,6.11253659 L83.1554803,6.11253659 L80.0543648,14.4755122 L76.8581339,5.7437561 L74.5227638,5.7437561 L79.1992021,17.8156098 L80.7469108,17.8156098 L83.8734488,9.486 L87.0004252,17.8156098 L88.5253412,17.8156098 L93.1776719,5.7437561 L90.8892021,5.7437561 L87.6920945,14.4781463 Z M67.9427008,5.55936585 C71.3672966,5.55936585 74.1532598,8.34980488 74.1532598,11.7799024 C74.1532598,15.21 71.3672966,18 67.9427008,18 C64.5185433,18 61.7325801,15.21 61.7325801,11.7799024 C61.7325801,8.34980488 64.5185433,5.55936585 67.9427008,5.55936585 Z M67.9427008,15.8540488 C70.172874,15.8540488 71.9875197,14.0263902 71.9875197,11.7799024 C71.9875197,9.50795122 70.2110079,7.72858537 67.9427008,7.72858537 C65.7002546,7.72858537 63.8755276,9.54614634 63.8755276,11.7799024 C63.8755276,14.0263902 65.7002546,15.8540488 67.9427008,15.8540488 Z M60.3400367,15.6582439 L59.9126745,15.6582439 C59.1578871,15.6582439 58.5459921,15.0453659 58.5459921,14.2893659 L58.5459921,0.210292683 L56.3916483,0.210292683 L56.3916483,14.2941951 C56.3916483,16.2390732 57.9656562,17.8160488 59.907853,17.8160488 L60.3400367,17.8160488 L60.3400367,15.6582439 Z M45.1561864,17.8156098 L47.3105302,17.8156098 L47.3105302,9.97682927 L53.941,9.97682927 L53.941,8.00341463 L47.3105302,8.00341463 L47.3105302,2.36809756 L54.4012362,2.36809756 L54.4012362,0.210292683 L45.1561864,0.210292683 L45.1561864,17.8156098 Z M28.8668924,17.2839512 C29.0628215,17.4801951 28.9243123,17.8151707 28.647294,17.8151707 L26.4272021,17.8151707 C26.3447979,17.8151707 26.2654619,17.7822439 26.2071654,17.7238537 L19.1006798,10.6059512 L20.6501417,9.054 L28.8668924,17.2839512 Z M36.7329869,10.3960976 C36.8539633,10.5172683 36.8539633,10.7139512 36.7329869,10.835561 L35.6218451,11.9480488 C35.5008688,12.0696585 35.3045013,12.0696585 35.1835249,11.9480488 L25.7543806,2.50419512 C25.3778635,2.12707317 24.7677218,2.12707317 24.3912047,2.50419512 C21.8524541,5.04702439 13.0154803,13.8990732 11.543601,15.3733171 L11.5440394,15.3733171 L10.7690892,16.1495122 C9.20516273,17.7159512 6.9640315,18.3586829 4.70624409,17.8033171 C4.15396063,17.6676585 3.6218399,17.4481463 3.13442782,17.154439 C0.991041995,15.8615122 -0.161301837,13.6000976 0.0184094488,11.1929268 C0.133687664,9.6444878 0.858230971,8.2044878 1.9540315,7.1064878 L8.10015748,0.950926829 C9.33183727,-0.282731707 11.3283858,-0.282731707 12.5600656,0.950926829 L16.3020052,4.69931707 L14.7525433,6.25082927 L11.0119186,2.50419512 C10.6354016,2.12707317 10.0248215,2.12707317 9.64830446,2.50419512 L3.49078215,8.67160976 C2.77412861,9.38941463 2.28627822,10.3262927 2.20518898,11.3382439 C2.09385564,12.7281951 2.66235696,14.0448293 3.75684252,14.9189268 C4.33849344,15.3838537 5.04287402,15.6810732 5.78100525,15.7723902 C7.07361155,15.9321951 8.31844094,15.4997561 9.2196273,14.597561 C9.2196273,14.597561 9.6014042,14.2142927 9.80478478,14.0105854 L22.8426194,0.950926829 C24.0742992,-0.282731707 26.0708478,-0.282731707 27.3025276,0.950926829 L36.7329869,10.3960976 Z" id="Shape"></path>
                        </g>
                    </g>
                </g>
            </g>
        </g>
    </g>
</svg>