<?xml version="1.0" encoding="UTF-8"?>
<svg width="243px" height="27px" viewBox="0 0 243 27" version="1.1" xmlns="http://www.w3.org/2000/svg" xmlns:xlink="http://www.w3.org/1999/xlink">
    <!-- Generator: sketchtool 49.3 (51167) - http://www.bohemiancoding.com/sketch -->
    <title>36B41450-2BEE-45B5-9DB1-B1F23774A5FD</title>
    <desc>Created with sketchtool.</desc>
    <defs></defs>
    <g id="Community" stroke="none" stroke-width="1" fill="none" fill-rule="evenodd">
        <g id="Community-6.0-(1)" transform="translate(-184.000000, -2717.000000)">
            <g id="07-Footer" transform="translate(0.000000, 2623.000000)">
                <g id="Copy" transform="translate(184.000000, 90.000000)">
                    <g id="Brandlogo/FlowMotion-Horizontal-LIght">
                        <g id="fm-logo-horizontal-light">
                            <rect id="Rectangle-path" x="0" y="0" width="243" height="35"></rect>
                            <g id="Group" transform="translate(0.000000, 4.375000)" fill="#FFFFFF" fill-rule="nonzero">
                                <path d="M235.032024,8.10740853 C230.947583,8.10740853 227.636788,11.4315549 227.636788,15.5310366 L227.636788,25.9810976 L230.771552,25.9810976 L230.771552,15.5310366 C230.772189,13.1698171 232.679196,11.2554878 235.032024,11.2554878 C237.384851,11.2554878 239.291858,13.1698171 239.293134,15.5310366 L239.293134,25.9810976 L242.427259,25.9810976 L242.427259,15.5310366 C242.427259,11.4315549 239.116464,8.10740853 235.032024,8.10740853 Z M215.40196,8.10740853 C220.385055,8.10740853 224.438882,12.1767988 224.438882,17.1790243 C224.438882,22.18125 220.385055,26.25 215.40196,26.25 C210.418866,26.25 206.365676,22.18125 206.365676,17.1790243 C206.365676,12.1767988 210.418866,8.10740853 215.40196,8.10740853 Z M215.40196,23.1204878 C218.647062,23.1204878 221.287535,20.4551524 221.287535,17.1790243 C221.287535,13.8657622 218.702551,11.2708537 215.40196,11.2708537 C212.138363,11.2708537 209.483221,13.9214634 209.483221,17.1790243 C209.483221,20.4551524 212.138363,23.1204878 215.40196,23.1204878 Z M199.782993,25.9810976 L202.917755,25.9810976 L202.917755,8.37631098 L199.782993,8.37631098 L199.782993,25.9810976 Z M199.782993,6.17707317 L202.917755,6.17707317 L202.917755,3.03027439 L199.782993,3.03027439 L199.782993,6.17707317 Z M196.502173,11.2542073 L196.502173,8.37631098 L191.27863,8.37631098 L191.27863,3.03027439 L188.143866,3.03027439 L188.143866,20.1190243 C188.143866,23.3567378 190.75819,25.9810976 193.98352,25.9810976 L196.502173,25.9810976 L196.502173,22.8342988 L193.990535,22.8342988 C192.492993,22.8342988 191.27863,21.6152743 191.27863,20.1119817 L191.27863,11.2542073 L196.502173,11.2542073 Z M175.875874,8.10740853 C180.858969,8.10740853 184.912158,12.1767988 184.912158,17.1790243 C184.912158,22.18125 180.858969,26.25 175.875874,26.25 C170.892779,26.25 166.838953,22.18125 166.838953,17.1790243 C166.838953,12.1767988 170.892779,8.10740853 175.875874,8.10740853 Z M175.875874,23.1204878 C179.120976,23.1204878 181.76081,20.4551524 181.76081,17.1790243 C181.76081,13.8657622 179.175827,11.2708537 175.875874,11.2708537 C172.612275,11.2708537 169.957133,13.9214634 169.957133,17.1790243 C169.957133,20.4551524 172.612275,23.1204878 175.875874,23.1204878 Z M151.019717,20.6216159 L141.01526,0.306676829 L138.465992,0.306676829 L138.465992,25.9810976 L141.600118,25.9810976 L141.600118,7.84682927 L150.137646,25.1743902 L151.934315,25.1743902 L160.471842,7.84682927 L160.471842,25.9810976 L163.606606,25.9810976 L163.606606,0.306676829 L161.023535,0.306676829 L151.019717,20.6216159 Z M127.599874,21.1139634 L123.054307,8.91411586 L120.998693,8.91411586 L116.486291,21.110122 L111.835488,8.37631098 L108.437315,8.37631098 L115.241953,25.9810976 L117.494008,25.9810976 L122.043402,13.83375 L126.593433,25.9810976 L128.812323,25.9810976 L135.581882,8.37631098 L132.251953,8.37631098 L127.599874,21.1139634 Z M98.8627323,8.10740853 C103.845827,8.10740853 107.899653,12.1767988 107.899653,17.1790243 C107.899653,22.18125 103.845827,26.25 98.8627323,26.25 C93.8802756,26.25 89.8264489,22.18125 89.8264489,17.1790243 C89.8264489,12.1767988 93.8802756,8.10740853 98.8627323,8.10740853 Z M98.8627323,23.1204878 C102.107835,23.1204878 104.748307,20.4551524 104.748307,17.1790243 C104.748307,13.8657622 102.163323,11.2708537 98.8627323,11.2708537 C95.5997717,11.2708537 92.94463,13.9214634 92.94463,17.1790243 C92.94463,20.4551524 95.5997717,23.1204878 98.8627323,23.1204878 Z M87.8001732,22.834939 L87.1783228,22.834939 C86.0800393,22.834939 85.1896771,21.9411586 85.1896771,20.8386586 L85.1896771,0.306676829 L82.0549134,0.306676829 L82.0549134,20.8457012 C82.0549134,23.6819817 84.3452363,25.9817378 87.1713071,25.9817378 L87.8001732,25.9817378 L87.8001732,22.834939 Z M65.7063072,25.9810976 L68.8410709,25.9810976 L68.8410709,14.5495427 L78.489,14.5495427 L78.489,11.6716463 L68.8410709,11.6716463 L68.8410709,3.45347561 L79.158685,3.45347561 L79.158685,0.306676829 L65.7063072,0.306676829 L65.7063072,25.9810976 Z M42.0039213,25.2057622 C42.2890157,25.4919512 42.0874724,25.9804573 41.6843859,25.9804573 L38.4539528,25.9804573 C38.3340472,25.9804573 38.2186062,25.932439 38.1337796,25.8472866 L27.7932047,15.4670122 L30.047811,13.20375 L42.0039213,25.2057622 Z M53.4497953,15.1609757 C53.6258268,15.3376829 53.6258268,15.6245122 53.4497953,15.8018598 L51.8329842,17.4242378 C51.6569528,17.6015853 51.3712205,17.6015853 51.1951889,17.4242378 L37.474937,3.65195122 C36.9270708,3.10198171 36.0392599,3.10198171 35.4913937,3.65195122 C31.7972835,7.3602439 18.9386929,20.2694818 16.7969763,22.4194208 L16.7976142,22.4194208 L15.6699921,23.551372 C13.3943386,25.8357622 10.1332913,26.7730792 6.84800787,25.9631708 C6.04438583,25.7653353 5.27010237,25.4452134 4.56087401,25.0168902 C1.44205512,23.131372 -0.234708661,19.8334757 0.0267874015,16.3230183 C0.194527559,14.064878 1.24880315,11.964878 2.84329134,10.363628 L11.7864567,1.38676829 C13.5786614,-0.412317073 16.4838189,-0.412317073 18.2760236,1.38676829 L23.7208818,6.85317073 L21.4662756,9.11579269 L16.0233307,3.65195122 C15.4754646,3.10198171 14.5870157,3.10198171 14.0391496,3.65195122 L5.07940157,12.6460976 C4.0366063,13.6928963 3.32674016,15.0591769 3.20874804,16.534939 C3.04674803,18.5619512 3.87396851,20.4820427 5.46654331,21.7567683 C6.31289764,22.4347866 7.33783465,22.8682318 8.41188189,23.0014024 C10.2927402,23.2344512 12.1040787,22.603811 13.4153858,21.2881098 C13.4153858,21.2881098 13.9709055,20.7291769 14.2668425,20.4321037 L33.238063,1.38676829 C35.0302677,-0.412317073 37.9354252,-0.412317073 39.72763,1.38676829 L53.4497953,15.1609757 Z" id="Shape"></path>
                            </g>
                        </g>
                    </g>
                </g>
            </g>
        </g>
    </g>
</svg>