<?xml version="1.0" encoding="UTF-8"?>
<svg width="68px" height="41px" viewBox="0 0 68 41" version="1.1" xmlns="http://www.w3.org/2000/svg" xmlns:xlink="http://www.w3.org/1999/xlink">
    <!-- Generator: sketchtool 50 (54983) - http://www.bohemiancoding.com/sketch -->
    <title>1E71E270-C59E-4914-B9A4-6C3466A31E30</title>
    <desc>Created with sketchtool.</desc>
    <defs></defs>
    <g id="Landing" stroke="none" stroke-width="1" fill="none" fill-rule="evenodd">
        <g id="Landing-Desktop-HD" transform="translate(-953.000000, -3791.000000)">
            <g id="05-Features" transform="translate(0.000000, 3095.000000)">
                <g id="Icons" transform="translate(883.000000, 334.000000)">
                    <g id="Timelapse" transform="translate(6.000000, 354.000000)">
                        <g id="Icons/Timelapse" transform="translate(62.000000, 0.000000)">
                            <g id="Icon_ModeTimeLapse">
                                <rect id="Rectangle-path" x="0" y="0" width="108" height="65.3333333"></rect>
                            </g>
                            <g id="icon-timelapse-48">
                                <rect id="Rectangle-path" x="0" y="0" width="72" height="56"></rect>
                                <path d="M29.5434783,29.7156862 L68.2826087,29.7156862 C68.6788129,29.7156862 69,29.9654984 69,30.2736573 L69,47.2753623 C69,47.5835212 68.6788129,47.8333333 68.2826087,47.8333333 L29.5434783,47.8333333 C29.147274,47.8333333 28.8260869,47.5835212 28.8260869,47.2753623 L28.8260869,30.2736573 C28.8260869,29.9654984 29.147274,29.7156862 29.5434783,29.7156862 Z M56.0869565,26.3186274 L56.0869565,20.0906862 C56.0869565,19.7779957 55.7657696,19.5245098 55.3695653,19.5245098 L16.6304348,19.5245098 C16.2342305,19.5245098 15.9130436,19.7779957 15.9130436,20.0906862 L15.9130436,37.0759804 C15.9130436,37.388671 16.2342305,37.6421569 16.6304348,37.6421569 L24.5217392,37.6421569 L56.0869565,26.3186274 Z M43.1739131,16.127451 L43.1739131,9.89950981 C43.1739131,9.58681918 42.852726,9.33333333 42.4565217,9.33333333 L3.71739131,9.33333333 C3.32118702,9.33333333 3,9.58681918 3,9.89950981 L3,26.8848039 C3,27.1974946 3.32118702,27.4509804 3.71739131,27.4509804 L11.6086956,27.4509804 L43.1739131,16.127451 Z" id="Shape" stroke="#FFFFFF" stroke-width="1.5"></path>
                            </g>
                        </g>
                    </g>
                </g>
            </g>
        </g>
    </g>
</svg>