<?xml version="1.0" encoding="UTF-8"?>
<svg width="44px" height="26px" viewBox="0 0 44 26" version="1.1" xmlns="http://www.w3.org/2000/svg" xmlns:xlink="http://www.w3.org/1999/xlink">
    <!-- Generator: sketchtool 49.3 (51167) - http://www.bohemiancoding.com/sketch -->
    <title>AB6B2C63-20CC-4B95-8CFA-62F190A29DB5</title>
    <desc>Created with sketchtool.</desc>
    <defs></defs>
    <g id="Landing" stroke="none" stroke-width="1" fill="none" fill-rule="evenodd">
        <g id="Landing-6.01" transform="translate(-781.000000, -9727.000000)">
            <g id="10-App" transform="translate(0.000000, 8690.000000)">
                <g id="Icons" transform="translate(412.000000, 1027.000000)">
                    <g id="Timelapse" transform="translate(349.000000, 0.000000)">
                        <g id="Icons/Panorama" transform="translate(12.000000, 0.000000)">
                            <g id="icon-pano-48" transform="translate(8.000000, 3.911322)">
                                <rect id="Rectangle-path" x="49" y="0" width="48" height="48"></rect>
                                <path d="M9.7717391,9.91931185 C6.72595218,9.44046685 3.71277195,8.78099365 0.75,7.94482625 L0.75,30.2506523 C3.71359313,29.4143059 6.72640596,28.7549359 9.7717391,28.2761616 L9.7717391,9.91931185 Z M29.8586957,10.4313543 C27.249879,10.7080822 24.6274323,10.8533157 21.9962546,10.8664219 C19.3718457,10.8533157 16.7500555,10.7080824 14.1413043,10.4313543 L14.1413043,27.7454275 C16.750121,27.4686996 19.3725677,27.3234661 22.0037454,27.3103599 C24.6281543,27.3234661 27.2499445,27.4686994 29.8586957,27.7454275 L29.8586957,10.4313543 Z M34.2282609,9.91799075 L34.2282609,28.2576425 C37.2738336,28.7372224 40.2869159,29.3966473 43.25,30.2320574 L43.25,7.92670465 C40.286576,8.76795885 37.2738061,9.43292845 34.2282609,9.91799065 Z" id="Shape" stroke="#FFFFFF" stroke-width="1.5"></path>
                            </g>
                        </g>
                    </g>
                </g>
            </g>
        </g>
    </g>
</svg>