<?xml version="1.0" encoding="UTF-8"?>
<svg width="115px" height="24px" viewBox="0 0 115 24" version="1.1" xmlns="http://www.w3.org/2000/svg" xmlns:xlink="http://www.w3.org/1999/xlink">
    <!-- Generator: sketchtool 49.3 (51167) - http://www.bohemiancoding.com/sketch -->
    <title>CF396803-E843-4F4A-B8BE-F701300EE464</title>
    <desc>Created with sketchtool.</desc>
    <defs>
        <rect id="path-1" x="0" y="0" width="115" height="25"></rect>
    </defs>
    <g id="Landing" stroke="none" stroke-width="1" fill="none" fill-rule="evenodd" opacity="0.600000024">
        <g id="Landing-6.01" transform="translate(-272.000000, -854.000000)">
            <g id="02-Testimonials" transform="translate(272.000000, 846.000000)">
                <g id="Testimonials">
                    <g id="Icons">
                        <g id="Bloomberg-logo" transform="translate(0.000000, 7.000000)">
                            <mask id="mask-2" fill="white">
                                <use xlink:href="#path-1"></use>
                            </mask>
                            <g id="a"></g>
                            <g id="Group" mask="url(#mask-2)" fill="#6F7375" fill-rule="nonzero">
                                <g transform="translate(0.000000, 1.000000)">
                                    <path d="M3.01827243,3.00720476 L5.50166113,3.00720476 C7.79401993,3.00720476 8.78737542,3.739729 8.78737542,5.20477747 C8.78737542,6.47705641 7.79401993,7.36379627 5.76910299,7.36379627 L3.01827243,7.36379627 L3.01827243,3.00720476 Z M0,17.5034739 L6.11295681,17.5034739 C9.32225914,17.5034739 12.5315615,16.3468567 12.5315615,12.6071277 C12.5315615,10.4095549 11.0033223,8.71318303 8.86378738,8.48185958 L8.86378738,8.44330568 C10.6212625,7.90355098 11.8056478,6.63127204 11.8056478,4.70357668 C11.8056478,1.5807102 9.16943522,0.385539072 6.60963455,0.385539072 L0,0.385539072 L0,17.5034739 Z M3.01827243,9.98546196 L5.92192691,9.98546196 C8.36710963,9.98546196 9.51328904,10.6023245 9.51328904,12.4143581 C9.51328904,14.6504847 7.33554817,14.9203621 5.80730897,14.9203621 L3.01827243,14.9203621 L3.01827243,9.98546196 Z" id="Shape"></path>
                                    <rect id="Rectangle-path" x="14.518" y="0" width="2.865" height="17.503"></rect>
                                    <path d="M22.1594684,11.7203878 C22.1594684,9.90835415 23.4202658,8.25053614 25.5215947,8.25053614 C27.6229236,8.25053614 28.8837209,9.90835415 28.8837209,11.7203878 C28.8837209,13.5324214 27.6229236,15.1902394 25.5215947,15.1902394 C23.4202658,15.1902394 22.1594684,13.5324214 22.1594684,11.7203878 Z M19.2940199,11.7203878 C19.2940199,15.383009 22.0830565,17.8119051 25.5598007,17.8119051 C29.0365449,17.8119051 31.8255814,15.383009 31.8255814,11.7203878 C31.8255814,8.0577666 29.0365449,5.62887045 25.5598007,5.62887045 C22.0830565,5.62887045 19.2940199,8.0577666 19.2940199,11.7203878 Z M35.9518272,11.7203878 C35.9518272,9.90835415 37.2126246,8.25053614 39.3139535,8.25053614 C41.4152824,8.25053614 42.6760797,9.90835415 42.6760797,11.7203878 C42.6760797,13.5324214 41.4152824,15.1902394 39.3139535,15.1902394 C37.2126246,15.1902394 35.9518272,13.5324214 35.9518272,11.7203878 Z M33.0863787,11.7203878 C33.0863787,15.383009 35.8754153,17.8119051 39.3521595,17.8119051 C42.8289037,17.8119051 45.6179402,15.383009 45.6179402,11.7203878 C45.6179402,8.0577666 42.8289037,5.62887045 39.3521595,5.62887045 C35.8754153,5.62887045 33.0863787,8.0577666 33.0863787,11.7203878 Z M47.3372093,5.8987478 L50.0498339,5.8987478 L50.0498339,7.71078144 L50.0880399,7.71078144 C50.5847176,6.63127204 51.692691,5.59031654 53.60299,5.59031654 C55.3604651,5.59031654 56.5830565,6.28428687 57.1943522,7.74933535 C58.0348837,6.28428687 59.2574751,5.59031654 60.9767442,5.59031654 C64.0332226,5.59031654 65.10299,7.78788925 65.10299,10.5637706 L65.10299,17.46492 L62.2757475,17.46492 L62.2757475,10.9107557 C62.2757475,9.44570726 61.8554817,8.21198223 60.1362126,8.21198223 C58.3405316,8.21198223 57.6528239,9.71558461 57.6528239,11.219187 L57.6528239,17.5034739 L54.7873754,17.5034739 L54.7873754,10.6023245 C54.7873754,9.17582991 54.2142857,8.25053614 52.8388704,8.25053614 C50.9667774,8.25053614 50.2026578,9.6384768 50.2026578,11.1806331 L50.2026578,17.5034739 L47.3372093,17.5034739 L47.3372093,5.8987478 Z M77.0232558,11.7203878 C77.0232558,13.5324214 75.7624585,15.1902394 73.6611296,15.1902394 C71.5598007,15.1902394 70.2990033,13.5324214 70.2990033,11.7203878 C70.2990033,9.90835415 71.5598007,8.25053614 73.6611296,8.25053614 C75.7624585,8.21198223 77.0232558,9.90835415 77.0232558,11.7203878 Z M67.4717608,17.5034739 L70.1843854,17.5034739 L70.1843854,15.768548 L70.2225914,15.768548 C71.0631229,17.1564887 72.5531561,17.8119051 74.1960133,17.8119051 C77.7491694,17.8119051 79.8887043,15.1516855 79.8887043,11.7203878 C79.8887043,8.28909005 77.5963455,5.62887045 74.3488372,5.62887045 C72.2093023,5.62887045 71.0249169,6.63127204 70.4518272,7.40235018 L70.3754153,7.40235018 L70.3754153,0 L67.5099668,0 L67.4717608,17.5034739 Z M84.0531561,10.5637706 C84.282392,8.90595256 85.3139535,7.82644316 87.0332226,7.82644316 C88.8289037,7.82644316 89.9368771,8.90595256 89.9750831,10.5637706 L84.0531561,10.5637706 Z M92.8405316,12.7227894 L92.8405316,11.9131573 C92.8405316,7.86499707 90.6627907,5.59031654 87.4534884,5.59031654 C83.9767442,5.59031654 81.1877076,8.0192127 81.1877076,11.6818339 C81.1877076,15.3444551 83.9767442,17.7733512 87.4534884,17.7733512 C89.2873754,17.7733512 90.9684385,17.1179348 92.3056478,15.4601168 L90.2425249,13.8794066 C89.5166113,14.7661465 88.5996678,15.4601168 87.1478405,15.4601168 C85.5431894,15.4601168 84.244186,14.4191613 84.0531561,12.7227894 L92.8405316,12.7227894 Z M94.7126246,5.8987478 L97.5780731,5.8987478 L97.5780731,7.74933535 L97.6162791,7.74933535 C98.2275748,6.4385025 99.4883721,5.62887045 101.016611,5.62887045 C101.360465,5.62887045 101.704319,5.70597827 102.048173,5.78308608 L102.048173,8.59752131 C101.589701,8.48185958 101.131229,8.36619786 100.672757,8.36619786 C97.9601329,8.36619786 97.5780731,10.6794323 97.5780731,11.2962948 L97.5780731,17.5034739 L94.7126246,17.5034739 L94.7126246,5.8987478 Z M108.504983,8.25053614 C110.568106,8.25053614 111.905316,9.6384768 111.905316,11.64328 C111.905316,13.5709753 110.606312,15.0360238 108.466777,15.0360238 C106.518272,15.0360238 105.104651,13.5324214 105.104651,11.6818339 C105.104651,9.6384768 106.480066,8.25053614 108.504983,8.25053614 Z M111.905316,5.8987478 L111.905316,7.63367363 L111.86711,7.63367363 C111.026578,6.24573297 109.498339,5.59031654 107.893688,5.59031654 C104.340532,5.59031654 102.200997,8.25053614 102.200997,11.6818339 C102.200997,14.958916 104.493355,17.6191356 107.931894,17.6191356 C109.383721,17.6191356 110.835548,17.0793809 111.714286,15.9227637 L111.752492,15.9227637 L111.752492,16.7709496 C111.752492,19.0456302 110.91196,20.6648943 108.122924,20.6648943 C106.518272,20.6648943 105.333887,20.0480317 104.187708,19.0070762 L102.468439,21.3974185 C104.07309,22.862467 106.021595,23.3251139 108.16113,23.3251139 C112.631229,23.3251139 114.656146,20.6648943 114.656146,16.5010723 L114.656146,5.8987478 L111.905316,5.8987478 Z" id="Shape"></path>
                                </g>
                            </g>
                        </g>
                    </g>
                </g>
            </g>
        </g>
    </g>
</svg>