<?xml version="1.0" encoding="UTF-8"?>
<svg width="73px" height="19px" viewBox="0 0 73 19" version="1.1" xmlns="http://www.w3.org/2000/svg" xmlns:xlink="http://www.w3.org/1999/xlink">
    <!-- Generator: sketchtool 49.3 (51167) - http://www.bohemiancoding.com/sketch -->
    <title>C52E1A69-C472-4EFD-A6B3-6082DB118769</title>
    <desc>Created with sketchtool.</desc>
    <defs>
        <rect id="path-1" x="0" y="0" width="73" height="25"></rect>
    </defs>
    <g id="Landing" stroke="none" stroke-width="1" fill="none" fill-rule="evenodd">
        <g id="Landing-6.01" transform="translate(-792.000000, -854.000000)">
            <g id="02-Testimonials" transform="translate(272.000000, 846.000000)">
                <g id="Forbes-marked" transform="translate(520.000000, 7.000000)">
                    <g id="Forbes-logo">
                        <mask id="mask-2" fill="white">
                            <use xlink:href="#path-1"></use>
                        </mask>
                        <g id="a"></g>
                        <g id="Group" mask="url(#mask-2)" fill="#000000" fill-rule="nonzero">
                            <g transform="translate(0.000000, 1.000000)" id="Shape">
                                <path d="M44.4716,5.45 C43.4152574,5.4295597 42.3724942,5.69696141 41.4494,6.225 C41.4494,3.465 41.4494,0.965 41.5321333,0.105 L35.9111333,1.14 L35.9111333,1.64 L36.5,1.725 C37.2543333,1.895 37.5074,2.33 37.6728667,3.365 C37.8432,5.435 37.7556,16.47 37.6728667,18.28 C39.2139034,18.6564436 40.790267,18.8593067 42.3740667,18.885 C46.8222,18.885 49.5037333,16.04 49.5037333,11.555 C49.5037333,8.02 47.3234667,5.435 44.4716,5.435 L44.4716,5.45 Z M42.5249333,17.95 C42.1869414,17.9682946 41.8480913,17.9397039 41.5175333,17.865 C41.4348,16.66 41.3520667,11.57 41.4348,7.09 C41.8370175,6.92859902 42.2635818,6.8406104 42.6952667,6.83 C44.5397333,6.83 45.5471333,9.07 45.5471333,11.83 C45.5471333,15.28 44.2866667,17.95 42.5249333,17.95 Z M14.7654667,0.45 L0,0.45 L0,1.225 L0.837066667,1.31 C1.9272,1.48 2.34573333,2.17 2.51606667,3.81 C2.72647997,7.60025339 2.72647997,11.3997466 2.51606667,15.19 C2.3506,16.825 1.9272,17.605 0.837066667,17.69 L0,17.86 L0,18.55 L9.48026667,18.55 L9.48026667,17.86 L8.47286667,17.69 C7.38273333,17.605 6.9642,16.83 6.79386667,15.19 C6.71113333,14.07 6.6284,12.26 6.6284,10.015 L8.6432,10.1 C9.90366667,10.1 10.4876667,11.135 10.7407333,12.6 L11.4950667,12.6 L11.4950667,6.5 L10.7407333,6.5 C10.4876667,7.965 9.90366667,9 8.6432,9 L6.6284,9.085 C6.6284,6.155 6.71113333,3.395 6.79386667,1.76 L9.71386667,1.76 C11.9817333,1.76 13.1546,3.225 13.9916667,5.81 L14.8287333,5.55 L14.7654667,0.45 Z"></path>
                                <path d="M19.5494,5.275 C23.7444667,5.275 25.842,8.205 25.842,12.085 C25.842,15.79 23.4914,18.895 19.2963333,18.895 C15.1012667,18.895 13.0037333,15.965 13.0037333,12.085 C13.0037333,8.38 15.3543333,5.275 19.5494,5.275 Z M19.2963333,6.135 C17.4518667,6.135 16.9457333,8.72 16.9457333,12.085 C16.9457333,15.36 17.7828,18.035 19.4618,18.035 C21.4084667,18.035 21.8951333,15.45 21.8951333,12.085 C21.8951333,8.81 21.0580667,6.135 19.2914667,6.135 L19.2963333,6.135 Z M50.6133333,12.17 C50.6133333,8.635 52.7936,5.275 57.0762667,5.275 C60.5997333,5.275 62.2787333,7.95 62.2787333,11.48 L54.4920667,11.48 C54.4093333,14.67 55.918,16.98 58.9402,16.98 C59.9708226,17.0239938 60.9826486,16.6869392 61.7920667,16.03 L62.1278667,16.46 C60.9066747,18.0243656 59.0471731,18.9167696 57.0957333,18.875 C53.3192,18.875 50.6328,16.115 50.6328,12.15 L50.6133333,12.17 Z M54.4726,10.535 L58.4146,10.45 C58.4146,8.725 58.1615333,6.14 56.7356,6.14 C55.3096667,6.14 54.5553333,8.555 54.4677333,10.535 L54.4726,10.535 Z M72.2456667,5.965 C71.0143231,5.48246032 69.7040183,5.24819035 68.3864,5.275 C65.2814667,5.275 63.3542667,7.17 63.3542667,9.415 C63.3542667,11.66 64.7802,12.605 66.795,13.295 C68.8925333,14.07 69.4814,14.675 69.4814,15.71 C69.4830349,16.2684138 69.2573631,16.8021006 68.8589726,17.1819664 C68.4605821,17.5618321 67.925757,17.7532798 67.3838667,17.71 C65.7876,17.71 64.6147333,16.76 63.6900667,14.175 L63.1012,14.345 L63.1839333,18.14 C64.6183867,18.6526379 66.1279618,18.908026 67.6466667,18.895 C70.9170667,18.895 73,17.17 73,14.5 C73,12.69 72.0753333,11.655 69.8950667,10.795 C67.5444667,9.845 66.7074,9.245 66.7074,8.125 C66.6789831,7.62885085 66.8526272,7.14289877 67.1867572,6.78349338 C67.5208873,6.42408799 67.9854198,6.2235886 68.4691333,6.23 C69.9778,6.23 70.9852,7.18 71.7395333,9.505 L72.3284,9.335 L72.2456667,5.975 L72.2456667,5.965 Z M36.7530667,5.62 C35.3271333,4.76 32.8110667,5.19 31.4678667,8.29 L31.5506,5.29 L25.9296,6.395 L25.9296,6.895 L26.5184667,6.98 C27.2728,7.065 27.6086,7.48 27.6913333,8.62 C27.8174539,11.118321 27.8174539,13.621679 27.6913333,16.12 C27.6086,17.155 27.2728,17.67 26.5184667,17.76 L25.9296,17.845 L25.9296,18.55 L33.7162667,18.55 L33.7162667,17.86 L32.7088667,17.775 C31.8718,17.69 31.6187333,17.17 31.536,16.135 C31.3792272,13.8051671 31.3516048,11.468057 31.4532667,9.135 C31.8718,8.53 33.7211333,8.015 35.3952667,9.135 L36.7384667,5.6 L36.7530667,5.62 Z"></path>
                            </g>
                        </g>
                    </g>
                </g>
            </g>
        </g>
    </g>
</svg>