<?xml version="1.0" encoding="UTF-8"?>
<svg width="46px" height="36px" viewBox="0 0 46 36" version="1.1" xmlns="http://www.w3.org/2000/svg" xmlns:xlink="http://www.w3.org/1999/xlink">
    <!-- Generator: sketchtool 49.3 (51167) - http://www.bohemiancoding.com/sketch -->
    <title>DF6183FC-E58A-42F8-B79F-0BD5F288FB86</title>
    <desc>Created with sketchtool.</desc>
    <defs></defs>
    <g id="Landing" stroke="none" stroke-width="1" fill="none" fill-rule="evenodd">
        <g id="Landing-6.01" transform="translate(-603.000000, -9722.000000)">
            <g id="10-App" transform="translate(0.000000, 8690.000000)">
                <g id="Icons" transform="translate(412.000000, 1027.000000)">
                    <g id="Photo" transform="translate(168.000000, 2.000000)">
                        <g id="Icon_ModePhoto" transform="translate(18.000000, 0.000000)">
                            <rect id="Rectangle-path" x="0" y="0" width="56" height="43"></rect>
                            <g id="Group" transform="translate(5.000000, 0.000000)">
                                <rect id="Rectangle-path" x="0" y="0" width="46" height="43"></rect>
                                <path d="M31.233973,3.98148148 L14.7660269,3.98148148 L12.3867166,8.75925926 L3.17241379,8.75925926 C1.85835698,8.75925926 0.793103448,9.82880125 0.793103448,11.1481481 L0.793103448,35.037037 C0.793103448,36.3563839 1.85835698,37.4259259 3.17241379,37.4259259 L42.8275862,37.4259259 C44.141643,37.4259259 45.2068966,36.3563839 45.2068966,35.037037 L45.2068966,11.1481481 C45.2068966,9.82880125 44.141643,8.75925926 42.8275862,8.75925926 L33.6132834,8.75925926 L31.233973,3.98148148 Z M23,32.6481481 C17.7437727,32.6481481 13.4827586,28.3699802 13.4827586,23.0925926 C13.4827586,17.815205 17.7437727,13.537037 23,13.537037 C28.2562273,13.537037 32.5172414,17.815205 32.5172414,23.0925926 C32.5172414,28.3699802 28.2562273,32.6481481 23,32.6481481 Z" id="Shape" stroke="#FFFFFF" stroke-width="1.5"></path>
                            </g>
                        </g>
                    </g>
                </g>
            </g>
        </g>
    </g>
</svg>