<?xml version="1.0" encoding="UTF-8"?>
<svg width="80px" height="39px" viewBox="0 0 80 39" version="1.1" xmlns="http://www.w3.org/2000/svg" xmlns:xlink="http://www.w3.org/1999/xlink">
    <!-- Generator: sketchtool 49.3 (51167) - http://www.bohemiancoding.com/sketch -->
    <title>0037E2B3-A9E5-4150-ADED-A242D3E5A202</title>
    <desc>Created with sketchtool.</desc>
    <defs></defs>
    <g id="Landing" stroke="none" stroke-width="1" fill="none" fill-rule="evenodd" opacity="0.600000024">
        <g id="Landing-6.01" transform="translate(-938.000000, -846.000000)" fill-rule="nonzero">
            <g id="02-Testimonials" transform="translate(272.000000, 846.000000)">
                <g id="Testimonials">
                    <g id="Icons">
                        <g id="Redbull" transform="translate(666.000000, 0.000000)">
                            <path d="M38.8087691,38.9449829 C36.7646711,38.6597437 34.6730583,37.4906991 33.4381837,35.9432562 L32.9662667,35.3518872 L32.7417556,35.6395445 C32.5657941,35.8649979 32.404127,35.942803 31.9941411,35.9993452 C31.7064339,36.0390226 31.1489077,36.2008275 30.7551947,36.3589098 C30.3607714,36.5172771 29.8495369,36.6463329 29.616611,36.6463329 C29.2531801,36.6463329 29.1434987,36.5916206 28.8348292,36.2563542 C28.6373556,36.0418679 28.3663474,35.8505282 28.2325878,35.8311573 C28.0706813,35.8077104 27.8982866,35.6454512 27.7168415,35.3457304 C27.2140319,34.5151605 27.3865692,34.205295 28.3666776,34.1786687 C29.3038128,34.1532109 29.7455156,33.9942222 29.4271841,33.7969428 C29.2832347,33.7077325 26.1234788,33.6831901 25.8191813,33.7689158 C25.6496402,33.8166809 25.4950969,33.9761048 25.3827595,34.2191244 C25.1414377,34.7411753 24.8695535,35.0152823 24.2871161,35.3237282 C23.8380999,35.5615143 23.6910416,35.586699 22.8504227,35.5697872 C21.9713663,35.552101 21.8948984,35.5670529 21.6032611,35.8136621 C21.1759167,36.1750236 20.7101557,36.3544497 20.374304,36.2870955 C20.1353638,36.2391763 20.0342988,36.2951262 19.7144427,36.6524017 L19.3367363,37.0742962 L18.6684024,37.0128617 C18.3008189,36.9790751 17.9353766,36.9920491 17.8563086,37.0416911 C17.6980976,37.1410281 17.2725172,36.9625184 17.0624493,36.7087088 C16.9609832,36.586115 16.9778458,36.4469726 17.1523147,35.9671643 C17.3239162,35.4952416 17.4882971,35.2695381 17.9701595,34.844224 C18.6285201,34.2631218 18.989305,34.170738 19.3438442,34.492469 C19.5834728,34.7099238 19.7889811,34.5878622 19.8933615,34.1660818 C20.0080835,33.702509 20.3291348,33.4448497 20.7920323,33.4448497 C21.018917,33.4448497 21.2880694,33.3836113 21.3901491,33.3087636 C21.5546816,33.1881257 21.5630905,33.1228255 21.4642285,32.7334971 C21.4028911,32.4919482 21.3250433,32.1208142 21.2912332,31.908755 L21.2297601,31.5231944 L20.7850532,31.5900643 C19.7911322,31.7395206 18.8263389,31.1738765 18.5017616,30.2514031 C18.2262776,29.4684624 18.5029649,28.6936214 19.3375585,27.9108177 C19.6171282,27.6485943 19.8458676,27.419235 19.8458676,27.4011276 C19.8458676,27.3830182 19.6882982,27.3425635 19.4957145,27.3112239 C19.055669,27.2396198 18.5902522,26.9121961 18.3976545,26.5387321 C18.2099727,26.1747994 18.206755,25.5379184 18.391322,25.2851813 C18.5298686,25.0954634 18.5480303,25.0983317 19.1777571,25.4093878 C19.5322943,25.584509 19.9960239,25.759355 20.2082679,25.7979298 C21.0529764,25.95146 21.4444784,26.3304726 21.4386986,26.9891097 C21.4339364,27.5318572 21.2608075,27.8111045 20.6289335,28.2952208 C19.6938985,29.0116067 19.4074015,29.7036534 19.8585727,30.15606 C20.0405576,30.3385435 20.1518493,30.3615262 20.6390355,30.3172276 C21.2457936,30.2620581 21.9335704,29.9675746 22.3401909,29.5888452 C22.7856282,29.173964 23.7240006,28.7426711 24.181233,28.7426711 C24.7656699,28.7426711 25.2174747,28.5703043 25.6531452,28.181127 C26.1467997,27.7401517 26.7487607,27.4423977 27.15026,27.4405939 C27.5094685,27.4389801 27.6877198,27.352382 28.3189622,26.8728188 C28.5500014,26.6972935 29.1527955,26.4154609 29.6585056,26.2465217 C30.1642147,26.0775824 30.7430314,25.8268943 30.9447653,25.6894376 C31.4700947,25.3314887 32.216064,25.1756575 32.6908964,25.3246726 L33.0657812,25.4423221 L33.59008,24.8516724 C34.689452,23.6131766 36.2353557,22.6626553 37.854882,22.2294045 C38.8150977,21.9725285 40.8068657,21.9207575 41.7460263,22.1282627 C42.6905328,22.3369494 43.8198935,22.8100055 44.6103635,23.3280515 C45.3099893,23.786559 46.4429938,24.8306517 46.7488417,25.2987125 C46.8842465,25.5059346 46.9165839,25.5124816 47.164378,25.3828505 C47.6413974,25.1333029 48.432493,25.265115 49.0716753,25.7006408 C49.2643668,25.8319356 49.8357853,26.0775824 50.3414944,26.2465217 C50.8472045,26.4154609 51.4499986,26.6972935 51.6810378,26.8728188 C52.3122802,27.352382 52.4905315,27.4389801 52.84974,27.4405939 C53.2512393,27.4423977 53.8532003,27.7401517 54.3468548,28.181127 C54.7825253,28.5703043 55.2343301,28.7426711 55.818767,28.7426711 C56.2759994,28.7426711 57.2143718,29.173964 57.6598091,29.5888452 C58.0664296,29.9675746 58.7542064,30.2620581 59.3609645,30.3172276 C59.8481507,30.3615262 59.9594424,30.3385435 60.1414273,30.15606 C60.5925985,29.7036534 60.3061015,29.0116067 59.3710665,28.2952208 C58.7391925,27.8111045 58.5660636,27.5318572 58.5613014,26.9891097 C58.5555216,26.3304726 58.9470236,25.95146 59.7917321,25.7979298 C60.0039761,25.759355 60.4677057,25.584509 60.8222429,25.4093878 C61.4519697,25.0983317 61.4701314,25.0954634 61.608678,25.2851813 C61.793245,25.5379184 61.7900273,26.1747994 61.6023455,26.5387321 C61.4097478,26.9121961 60.944331,27.2396198 60.5042855,27.3112239 C60.3117018,27.3425635 60.1541324,27.3838956 60.1541324,27.4030765 C60.1541324,27.4222564 60.3593443,27.6276235 60.6101595,27.8594519 C61.466761,28.6512028 61.7720043,29.4733457 61.4982384,30.2514031 C61.1736611,31.1738765 60.2088678,31.7395206 59.2149468,31.5900643 L58.7702399,31.5231944 L58.7087668,31.908755 C58.6749567,32.1208142 58.5971089,32.4919482 58.5357715,32.7334971 C58.4369095,33.1228255 58.4453184,33.1881257 58.6098509,33.3087636 C58.7119306,33.3836113 58.981083,33.4448497 59.2079677,33.4448497 C59.6708652,33.4448497 59.9919165,33.702509 60.1066385,34.1660818 C60.2110189,34.5878622 60.4165272,34.7099238 60.6561558,34.492469 C61.010695,34.170738 61.3714799,34.2631218 62.0298405,34.844224 C62.5117029,35.2695381 62.6760838,35.4952416 62.8476853,35.9671643 C63.0221542,36.4469726 63.0390168,36.586115 62.9375507,36.7087088 C62.7274828,36.9625184 62.3019024,37.1410281 62.1436914,37.0416911 C62.0646234,36.9920491 61.6991811,36.9790751 61.3315976,37.0128617 L60.6632637,37.0742962 L60.2855573,36.6524017 C59.9657012,36.2951262 59.8646362,36.2391763 59.625696,36.2870955 C59.2898443,36.3544497 58.8240833,36.1750236 58.3967389,35.8136621 C58.1051016,35.5670529 58.0286337,35.552101 57.1495773,35.5697872 C56.3089584,35.586699 56.1619001,35.5615143 55.7128839,35.3237282 C55.1304465,35.0152823 54.8585623,34.7411753 54.6172405,34.2191244 C54.5049031,33.9761048 54.3503598,33.8166809 54.1808187,33.7689158 C53.8765212,33.6831901 50.7167653,33.7077325 50.5728159,33.7969428 C50.2544844,33.9942222 50.6961872,34.1532109 51.6333224,34.1786687 C52.2634184,34.1957876 52.5731605,34.3460582 52.5690588,34.632644 C52.5677767,34.7222025 52.4443077,35.0205797 52.2946832,35.2957072 C52.0983331,35.6567534 51.9532962,35.8057385 51.7734255,35.8311573 C51.6363585,35.8505282 51.3626444,36.0418679 51.1651708,36.2563542 C50.8573494,36.5906991 50.7462881,36.6463329 50.3866626,36.6463329 C50.1559566,36.6463329 49.62151,36.5139816 49.1990045,36.3522147 C48.7764991,36.1904527 48.2187953,36.0303075 47.9596641,35.9963408 C47.595848,35.9486507 47.4353184,35.8664236 47.2550067,35.6353966 L47.0214992,35.3362119 L46.5787668,35.899664 C45.596174,37.1501834 43.7528511,38.3349903 42.1505906,38.7459037 C41.2540031,38.9758412 39.6953144,39.0686942 38.8087691,38.9449829 Z" id="path1877" fill="#B1B4B5"></path>
                            <path d="M18.3151723,35.9136734 C18.0725527,35.7620401 18.2768928,35.2197184 18.6608354,34.9962793 C18.8478448,34.8874453 19.0008517,34.7605327 19.0008517,34.7142476 C19.0008517,34.6679634 19.2038669,34.4923225 19.4519964,34.3239341 C19.7384554,34.1295349 19.9927749,33.8433033 20.1486867,33.5398255 C20.3827514,33.084224 20.4180589,33.0586442 20.9038721,32.9927398 C21.2100039,32.9512108 21.5193555,32.8338035 21.6785673,32.6987249 C21.9205109,32.4934533 21.9326348,32.4500611 21.8176174,32.2010679 C21.7483143,32.0510422 21.6524247,31.6204574 21.6045293,31.2442141 C21.556633,30.8679719 21.5012248,30.5441389 21.4814011,30.5245856 C21.4615773,30.5050324 21.19909,30.5212972 20.8980952,30.5607272 C19.8173293,30.7023097 19.2217886,30.4511791 18.8258541,29.6868919 C18.3991641,28.8632329 18.6068972,28.2798972 19.6611045,27.34142 C20.4307027,26.6563056 20.4464755,26.4869408 19.7479143,26.4092781 C19.1760983,26.3457044 18.8118683,26.0985389 18.5636218,25.6056182 C18.4156879,25.3118795 18.3990501,25.1847863 18.4843579,25.0001115 L18.5923274,24.7663779 L19.0625148,25.0255848 C19.3211182,25.1681497 19.7608531,25.320366 20.0397032,25.363845 C21.2304316,25.5495071 21.5729188,26.4487752 20.7245466,27.1620349 C19.6731333,28.0459989 19.3938612,28.3601914 19.334769,28.7255928 C19.2012009,29.5515125 19.7368474,30.0494625 20.6579896,29.955689 C21.2633701,29.8940603 21.6505677,29.7176283 22.3730716,29.1741902 C22.9775682,28.719512 23.9124001,28.3137455 24.3632038,28.3103673 C24.8573129,28.3066655 25.5201447,28.0324752 25.9007554,27.6743372 C26.3694298,27.2333366 26.6123014,27.1217645 27.3176746,27.0234213 C27.8143286,26.9541761 27.9862682,26.8744994 28.3472212,26.5463235 C28.6623378,26.2598206 28.9763024,26.094848 29.4981881,25.9415447 C29.8928946,25.8256002 30.5520624,25.5560752 30.9630057,25.3426001 C31.7931671,24.9113495 32.3777579,24.8408744 32.9403841,25.104216 C33.4593848,25.3471383 35.3435415,26.8735179 35.7603027,27.3886698 C35.9718807,27.6501955 36.2905533,28.0286176 36.4684648,28.2296075 C36.9476301,28.7709231 37.2089855,29.343555 37.3100541,30.0735303 C37.4363573,30.9857609 37.8792061,32.3191113 38.1524863,32.609962 C38.2788735,32.7444735 38.456911,33.0096556 38.5481248,33.1992513 C38.6393385,33.388847 38.8966409,33.6744947 39.1199068,33.8340208 C39.4396563,34.0624873 39.4912666,34.1371584 39.3629844,34.185714 C39.102821,34.2841855 38.6943217,34.1386458 38.463649,33.8652987 C37.8472796,33.1349092 37.5675355,32.8449285 37.5223191,32.8895289 C37.4946955,32.9167747 37.527832,33.0053137 37.5959561,33.0862776 C37.6640811,33.1672425 37.7752796,33.4235317 37.8430646,33.6558075 C37.9402603,33.9888647 38.0638985,34.1406737 38.4280124,34.3740324 C38.9698769,34.7213108 39.0084483,34.8178865 38.605283,34.8178865 C38.2239263,34.8178865 37.8327328,34.6479752 37.4221145,34.3039863 C37.0327569,33.9778078 36.9752347,33.9715189 36.6215567,34.2164504 C36.4378042,34.3437024 36.1092518,34.4206322 35.6006199,34.4555013 C35.1881257,34.4837818 34.6833277,34.5768866 34.4788476,34.6624015 C34.0088322,34.8589696 33.7567177,34.8591028 33.5577914,34.6628897 C33.3554363,34.4632954 33.3572902,34.0871459 33.5621494,33.778756 C33.7159842,33.5471776 33.7137613,33.5356414 33.515288,33.5356414 C33.2639846,33.5356414 33.3152488,33.3167523 33.6538901,32.943836 C33.7770474,32.8082139 33.951604,32.5529988 34.0417937,32.3766891 L34.2057754,32.0561278 L33.804648,32.0561278 C33.5840281,32.0561278 33.2018244,32.109338 32.9553059,32.1743715 C32.7087883,32.239406 32.4772545,32.2631857 32.440787,32.2272168 C32.4043196,32.1912459 32.4530099,31.9985895 32.5489875,31.7990919 C32.7690965,31.341576 32.8810409,30.6146061 32.7158802,30.715288 C32.6525101,30.7539191 32.6006618,30.8872095 32.6006618,31.0114906 C32.6006618,31.1357717 32.4653817,31.4216561 32.300039,31.6467927 C32.0617423,31.9712619 31.9366981,32.0561278 31.6969084,32.0561278 C31.3608971,32.0561278 31.2081953,32.2793716 31.367502,32.5377075 C31.940311,33.4665895 32.0388827,33.744385 31.9336551,34.1332426 C31.8168378,34.5649281 31.9073045,34.6374934 32.1449982,34.3027682 C32.375154,33.9786581 32.3361495,33.6289997 32.0006702,33.0089 C31.8356725,32.703922 31.7006744,32.4284139 31.7006744,32.3966596 C31.7006744,32.3649072 31.8230397,32.3529725 31.9725966,32.3701378 C32.3801739,32.416918 32.8506583,33.1512342 32.8506583,33.7405876 C32.8506583,34.3495849 32.4533169,34.8795398 31.9237653,34.9768346 C31.7185661,35.0145375 31.1709908,35.1717388 30.7069293,35.3261724 C29.579548,35.7013514 29.3964846,35.6918263 28.9942962,35.237082 C28.8143747,35.0336489 28.579834,34.8444931 28.4730954,34.8167345 C28.2669693,34.7631307 27.6287902,33.9682591 27.719803,33.8784871 C27.7493955,33.8492993 27.9991021,33.7990757 28.2747072,33.7668805 C28.8174926,33.7034725 28.7656204,33.6724274 29.4127843,34.4480081 C29.6279953,34.7059238 29.8015269,34.817776 29.9860573,34.8175176 C30.2888021,34.8170964 30.8804728,34.4914387 30.9627547,34.2799403 C31.0533514,34.0470718 30.721919,33.6105324 30.1385872,33.1944034 C29.8374704,32.9795958 29.4920142,32.6467052 29.3709059,32.4546466 L29.15071,32.1054449 L29.1007107,32.4506648 L29.0507114,32.7958846 L28.5507184,32.7693717 C28.2757222,32.7547906 27.5107329,32.726817 26.8507421,32.7072085 C26.1907513,32.6876 25.5922137,32.6662407 25.5206577,32.6597457 C25.2927089,32.6390483 25.0769189,31.9649868 25.1481829,31.4962473 C25.1864843,31.2443236 25.1736035,31.0697854 25.1167123,31.0697854 C25.063743,31.0697854 24.9891551,31.335363 24.9509606,31.6599584 C24.7918198,33.0124223 24.1802184,33.5533166 22.6008014,33.7384206 C22.0783087,33.7996557 21.4667033,33.9155785 21.2416784,33.9960285 C20.8263642,34.1445086 20.3008335,34.550713 20.3008335,34.723244 C20.3008335,34.8609019 20.412084,34.8391501 20.5398062,34.67652 C20.6008684,34.5987686 20.8712776,34.4212269 21.1407158,34.281983 C21.5476961,34.0716583 21.7657361,34.0288126 22.4290958,34.0288126 C23.5533021,34.0288126 23.9539135,33.8871215 24.56715,33.2726115 C24.9468017,32.8921723 25.1093384,32.7866761 25.1810404,32.8741617 C25.3048767,33.0252605 24.8358342,33.9149561 24.5512032,34.0688561 C24.4414407,34.1282053 24.2164439,34.2655338 24.0512102,34.3740324 C23.7935338,34.5432316 23.6114183,34.5676258 22.7713571,34.5454696 L21.7919287,34.5196392 L21.3319972,34.8660309 C20.9453536,35.1572287 20.7910497,35.2124235 20.3636407,35.2124235 C19.8980832,35.2124235 19.8243892,35.2456879 19.4895859,35.6069604 C19.2005449,35.9188527 19.053457,36.0011798 18.7874067,35.9999873 C18.6023063,35.9991568 18.3898002,35.9603146 18.3151723,35.9136734 Z M35.8565034,33.5915986 C36.0076972,33.4815297 36.024113,33.4237694 35.9307503,33.330352 C35.8367526,33.2362963 35.7551418,33.2464409 35.5525686,33.377362 C35.2990511,33.5412053 35.2908783,33.7329099 35.5374098,33.7329099 C35.6061508,33.7329099 35.7497428,33.6693194 35.8565034,33.5915986 Z M36.8006032,31.432935 C36.8006032,31.0831789 36.2647847,30.2807115 36.0312459,30.2807115 C35.9616349,30.2807115 35.812853,30.4582541 35.7006185,30.6752484 C35.4859845,31.0902254 35.520996,31.1714359 35.8051721,30.9177683 C35.9599709,30.7795877 36.0039243,30.7893653 36.2880393,31.0251702 C36.4789837,31.1836468 36.600606,31.3771267 36.600606,31.5224071 C36.600606,31.6532079 36.6456053,31.7602251 36.7006046,31.7602251 C36.7556038,31.7602251 36.8006032,31.6129444 36.8006032,31.432935 Z M32.8969567,27.8965375 C32.7940791,27.5290302 32.5461926,27.2438984 32.4295722,27.3589276 C32.3931297,27.3948719 32.4729666,27.6425454 32.6069857,27.9093126 C32.8792569,28.4512732 33.0501375,28.4437445 32.8969567,27.8965375 Z M60.5115311,35.6069604 C60.1767278,35.2456879 60.1030338,35.2124235 59.6374763,35.2124235 C59.2100673,35.2124235 59.0557634,35.1572287 58.6691198,34.8660309 L58.2091883,34.5196392 L57.2297599,34.5454696 C56.3896987,34.5676258 56.2075832,34.5432316 55.9499068,34.3740324 C55.7846731,34.2655338 55.5596762,34.1282053 55.4499138,34.0688561 C55.1652828,33.9149561 54.6962403,33.0252605 54.8200766,32.8741617 C54.8917786,32.7866761 55.0543153,32.8921723 55.433967,33.2726115 C56.0452025,33.8851173 56.4483128,34.0288126 57.5553434,34.0288126 C58.3761639,34.0288126 58.9283242,34.2080872 59.376787,34.6201919 C59.6144456,34.8385839 59.7002834,34.8659293 59.7002834,34.723244 C59.7002834,34.550713 59.1747528,34.1445086 58.7594386,33.9960285 C58.5344137,33.9155785 57.9289092,33.7995837 57.4138734,33.7382618 C55.7491086,33.5400523 55.2297739,33.0786749 55.0485814,31.6369323 C55.0093789,31.3250005 54.934733,31.0697854 54.8827007,31.0697854 C54.8278185,31.0697854 54.8153206,31.2488421 54.8529341,31.4962473 C54.9241981,31.9649868 54.7084081,32.6390483 54.4804593,32.6597457 C54.4089033,32.6662407 53.8103657,32.6876 53.1503749,32.7072085 C52.4903841,32.726817 51.7253948,32.7547906 51.4503986,32.7693717 L50.9504056,32.7958846 L50.9004063,32.4506648 L50.850407,32.1054449 L50.6302111,32.4546466 C50.5091028,32.6467052 50.1636466,32.9795958 49.8625298,33.1944034 C49.2791979,33.6105324 48.9477656,34.0470718 49.0383623,34.2799403 C49.1206442,34.4914387 49.7123149,34.8170964 50.0150597,34.8175176 C50.1995901,34.817776 50.3731217,34.7059238 50.5883327,34.4480081 C51.2354966,33.6724274 51.1836243,33.7034725 51.7264098,33.7668805 C52.0020149,33.7990757 52.2517214,33.8492993 52.281314,33.8784871 C52.3723268,33.9682591 51.7341477,34.7631307 51.5280215,34.8167345 C51.421283,34.8444931 51.1867423,35.0336489 51.0068208,35.237082 C50.6046324,35.6918263 50.421569,35.7013514 49.2941877,35.3261724 C48.8301262,35.1717388 48.2825509,35.0145375 48.0773517,34.9768346 C47.5478001,34.8795398 47.1504587,34.3495849 47.1504587,33.7405876 C47.1504587,33.1512342 47.6209431,32.416918 48.0285204,32.3701378 C48.1780773,32.3529725 48.3004426,32.3649072 48.3004426,32.3966596 C48.3004426,32.4284139 48.1654445,32.703922 48.0004468,33.0089 C47.6649675,33.6289997 47.625963,33.9786581 47.8561188,34.3027682 C48.0954955,34.6398625 48.1840102,34.5639329 48.0648769,34.1236898 C47.9898069,33.8462761 47.988744,33.6741505 48.0613749,33.556543 C48.4624463,32.9071125 48.7171718,32.3400455 48.6664225,32.2095997 C48.630602,32.1175266 48.485692,32.0561278 48.3042086,32.0561278 C48.0644189,32.0561278 47.9393746,31.9712619 47.701078,31.6467927 C47.5357353,31.4216561 47.4004552,31.1357717 47.4004552,31.0114906 C47.4004552,30.8872095 47.3486069,30.7539191 47.2852368,30.715288 C47.1200761,30.6146061 47.2320205,31.341576 47.4521294,31.7990919 C47.5481071,31.9985895 47.5967974,32.1912459 47.5603299,32.2272168 C47.5238624,32.2631857 47.2923287,32.239406 47.0458111,32.1743715 C46.7992926,32.109338 46.4170889,32.0561278 46.196469,32.0561278 L45.7953416,32.0561278 L45.9593233,32.3766891 C46.049513,32.5529988 46.2240696,32.8082139 46.3472269,32.943836 C46.6858681,33.3167523 46.7371324,33.5356414 46.4858289,33.5356414 C46.2873557,33.5356414 46.2851327,33.5471776 46.4389676,33.778756 C46.6438267,34.0871459 46.6456807,34.4632954 46.4433255,34.6628897 C46.2443993,34.8591028 45.9922848,34.8589696 45.5222694,34.6624015 C45.3177893,34.5768866 44.8129913,34.4837818 44.4004971,34.4555013 C43.8918652,34.4206322 43.5633127,34.3437024 43.3795603,34.2164504 C43.0258823,33.9715189 42.9683601,33.9778078 42.5790025,34.3039863 C42.1683842,34.6479752 41.7771907,34.8178865 41.395834,34.8178865 C40.9926686,34.8178865 41.0312401,34.7213108 41.5731045,34.3740324 C41.9372185,34.1406737 42.0608567,33.9888647 42.1580524,33.6558075 C42.2258374,33.4235317 42.3370359,33.1672425 42.4051609,33.0862776 C42.473285,33.0053137 42.5064215,32.9167747 42.4787979,32.8895289 C42.4335815,32.8449285 42.1538374,33.1349092 41.537468,33.8652987 C41.3067953,34.1386458 40.898296,34.2841855 40.6381326,34.185714 C40.5098504,34.1371584 40.5614607,34.0624873 40.8812102,33.8340208 C41.1044761,33.6744947 41.3617785,33.388847 41.4529922,33.1992513 C41.5442059,33.0096556 41.7222435,32.7444735 41.8486307,32.609962 C42.1219109,32.3191113 42.5647597,30.9857609 42.6910629,30.0735303 C42.7921315,29.343555 43.0534869,28.7709231 43.5326522,28.2296075 C43.7105637,28.0286176 44.0292362,27.6501955 44.2408143,27.3886698 C44.6575755,26.8735179 46.5417322,25.3471383 47.0607329,25.104216 C47.6233591,24.8408744 48.2079499,24.9113495 49.0381113,25.3426001 C49.4490546,25.5560752 50.1082224,25.8256002 50.5029289,25.9415447 C51.0248146,26.094848 51.3387792,26.2598206 51.6538958,26.5463235 C52.0142398,26.873944 52.1871163,26.9542224 52.6804154,27.0229991 C53.3772157,27.120146 53.7421556,27.290437 54.141509,27.7047787 C54.4425848,28.0171563 55.0234567,28.244744 55.7960899,28.3530532 C56.3905126,28.4363804 57.0305677,28.7251262 57.6451751,29.1872257 C58.3504443,29.7174912 58.7414068,29.8944332 59.3431274,29.955689 C60.2642696,30.0494625 60.7999161,29.5515125 60.6663479,28.7255928 C60.6072558,28.3601914 60.3279837,28.0459989 59.2765704,27.1620349 C58.4281982,26.4487752 58.7706854,25.5495071 59.9614138,25.363845 C60.2402639,25.320366 60.6799988,25.1681497 60.9386021,25.0255848 L61.4087896,24.7663779 L61.5167591,25.0001115 C61.6020669,25.1847863 61.5854291,25.3118795 61.4374952,25.6056182 C61.1892486,26.0985389 60.8250187,26.3457044 60.2532027,26.4092781 C59.5546415,26.4869408 59.5704142,26.6563056 60.3400125,27.34142 C61.3942198,28.2798972 61.6019529,28.8632329 61.1752628,29.6868919 C60.7793284,30.4511791 60.1837877,30.7023097 59.1030218,30.5607272 C58.802027,30.5212972 58.5395396,30.5050324 58.5197159,30.5245856 C58.4998922,30.5441389 58.444484,30.8679719 58.3965876,31.2442141 C58.3486923,31.6204574 58.2528026,32.0510422 58.1834996,32.2010679 C58.0684822,32.4500611 58.080606,32.4934533 58.3225497,32.6987249 C58.4817614,32.8338035 58.7911131,32.9512108 59.0972449,32.9927398 C59.5830581,33.0586442 59.6183656,33.084224 59.8524303,33.5398255 C60.0083421,33.8433033 60.2626616,34.1295349 60.5491206,34.3239341 C60.7972501,34.4923225 61.0002653,34.6679634 61.0002653,34.7142476 C61.0002653,34.7605327 61.1532721,34.8874453 61.3402815,34.9962793 C61.5715273,35.1308559 61.7029035,35.2956777 61.7509648,35.511513 C61.8343876,35.8861525 61.7116434,35.9977522 61.2137103,35.9999873 C60.94766,36.0011798 60.8005721,35.9188527 60.5115311,35.6069604 Z M44.6477786,33.6386086 C44.6802762,33.5867418 44.5906234,33.4691807 44.4485484,33.377362 C44.2459752,33.2464409 44.1643644,33.2362963 44.0703667,33.330352 C43.977004,33.4237694 43.9934197,33.4815297 44.1446136,33.5915986 C44.3692905,33.7551618 44.5633858,33.7732957 44.6477786,33.6386086 Z M43.400511,31.5224071 C43.400511,31.3771267 43.5221333,31.1836468 43.7130777,31.0251702 C43.9971927,30.7893653 44.0411461,30.7795877 44.1959449,30.9177683 C44.4801209,31.1714359 44.5151325,31.0902254 44.3004985,30.6752484 C44.188264,30.4582541 44.0394821,30.2807115 43.9698711,30.2807115 C43.7363323,30.2807115 43.2005138,31.0831789 43.2005138,31.432935 C43.2005138,31.6129444 43.2455132,31.7602251 43.3005124,31.7602251 C43.3555116,31.7602251 43.400511,31.6532079 43.400511,31.5224071 Z M47.5730378,27.3604002 C47.4558464,27.2448068 47.2078579,27.5261018 47.1059203,27.8902505 C46.9495845,28.4487265 47.1002754,28.4680341 47.3819614,27.9256198 C47.5243164,27.6515014 47.6103002,27.3971523 47.5730378,27.3604002 Z M17.4265687,35.8219791 C17.3276991,35.7600486 17.328599,35.6544015 17.4309656,35.3056604 C17.5382161,34.9402807 17.6006003,34.8672036 17.8052654,34.8672036 C18.0074786,34.8672036 18.04629,34.9107644 18.0249683,35.1137892 C17.9865249,35.4798436 17.7924036,35.9030742 17.6637384,35.901353 C17.6016622,35.9005225 17.4949357,35.8648051 17.4265687,35.8219791 Z M62.1132787,35.631619 C62.0521006,35.4824357 61.9903915,35.2494113 61.9761487,35.1137892 C61.954827,34.9107644 61.9936384,34.8672036 62.1958516,34.8672036 C62.4005167,34.8672036 62.4629009,34.9402807 62.5701514,35.3056604 C62.6725179,35.6544015 62.6734179,35.7600486 62.5745483,35.8219791 C62.3532664,35.9605878 62.2267782,35.9083886 62.1132787,35.631619 Z M61.2565737,34.4155841 C60.8977897,34.1048675 60.8700361,33.9274225 61.1811648,33.9334609 C61.4081486,33.9378649 61.8002541,34.2700848 61.8002541,34.4579968 C61.8002541,34.7392878 61.6135307,34.7247196 61.2565737,34.4155841 Z M18.2189076,34.4162992 C18.2594151,34.1572935 18.7173957,33.877484 18.9541484,33.9670952 C19.1146941,34.0278627 19.1040423,34.0640487 18.8480228,34.327629 C18.5096506,34.6759962 18.1708233,34.723752 18.2189076,34.4162992 Z M29.6323183,34.1521054 C29.5382316,33.9486723 29.4429949,33.7463192 29.4206792,33.7024309 C29.3983645,33.6585446 29.5954748,33.6363519 29.8587011,33.6531138 C30.293439,33.6807994 30.3444563,33.7101697 30.4154373,33.9736159 C30.509293,34.3219644 30.3722759,34.5219838 30.0397956,34.5219838 C29.863687,34.5219838 29.7597495,34.4276362 29.6323183,34.1521054 Z M49.6162252,34.3928114 C49.5495422,34.3135598 49.5377373,34.151557 49.5856797,33.9736159 C49.6566607,33.7101697 49.707678,33.6807994 50.1424159,33.6531138 C50.4056422,33.6363519 50.6027525,33.6585446 50.5804378,33.7024309 C50.5581221,33.7463192 50.4628854,33.9486723 50.3687987,34.1521054 C50.2413675,34.4276362 50.13743,34.5219838 49.9613214,34.5219838 C49.8312962,34.5219838 49.6760024,34.4638576 49.6162252,34.3928114 Z M62.0502506,18.5499136 C60.0967429,18.2361788 58.6392232,17.322875 57.9777185,15.9980041 L57.6503121,15.342266 L57.6219125,11.5671864 L57.5935129,7.79210491 L59.2968891,7.79210491 L61.0002653,7.79210491 L61.0002653,10.974585 C61.0002653,14.1344206 61.0019543,14.1602105 61.23771,14.5993923 C61.8686292,15.774713 63.4464291,16.045753 64.4744918,15.1554182 C65.175979,14.5479092 65.1955487,14.4334481 65.1980107,10.923742 L65.2002066,7.79210491 L66.9035829,7.79210491 L68.6069591,7.79210491 L68.5785595,11.5648646 L68.5501599,15.3376232 L68.2741127,15.8920611 C67.4513782,17.544516 65.7348452,18.5278027 63.5502297,18.598055 C63.0002374,18.615742 62.3252468,18.594078 62.0502506,18.5499136 Z M17.3508747,18.1852066 C15.183868,17.8527668 13.3428297,16.1216204 12.6475734,13.7626504 C12.4497932,13.0915914 12.4924196,11.8869616 12.746999,10.9528726 C13.2835575,8.98416243 14.7911735,7.56440915 16.900881,7.04107412 C17.8038174,6.81709125 19.5979494,6.89386578 20.5008308,7.19512315 C21.8526769,7.64618305 22.8715697,8.53847336 23.4446427,9.77315013 C23.7932298,10.5241777 24.0156947,11.6723749 23.9804242,12.5384565 L23.9507826,13.2663042 L20.0758367,13.2921207 L16.2008908,13.3179402 L16.2030868,13.5880235 C16.2123266,14.7243007 17.7444672,15.76056 19.0171895,15.4913329 C19.7436933,15.3376518 20.1445077,15.1271259 20.5467971,14.6879165 L20.8974572,14.3050727 L22.2948137,14.9119573 L23.6921702,15.518841 L23.5214806,15.814937 C22.9792102,16.7556137 21.7067199,17.6577097 20.4445365,17.996249 C19.8532918,18.1548331 17.9218578,18.2728016 17.3508747,18.1852066 Z M20.5008308,10.9937881 C20.5008308,10.3342209 19.7355964,9.48833548 18.9402015,9.26867713 C17.7375783,8.9365575 16.4254537,9.72031049 16.2337933,10.8852579 L16.1747232,11.2443033 L18.337777,11.2443033 L20.5008308,11.2443033 L20.5008308,10.9937881 Z M29.8007009,18.0675251 C28.8141697,17.741096 28.1639918,17.3449355 27.4424438,16.6306145 C26.6134904,15.8099649 26.1851094,15.0197271 25.9551136,13.8869266 C25.5237906,11.7625236 25.9771933,10.0825616 27.3485551,8.72390602 C28.5876978,7.496245 29.6858185,7.05038441 31.2893861,7.12384334 C32.4146564,7.17539167 33.1273465,7.39849886 33.9974423,7.97159881 C34.3232238,8.18617937 34.6147157,8.33714223 34.6452023,8.30707171 C34.6756888,8.27700119 34.7009525,6.69521001 34.7013435,4.7919801 C34.7017345,2.88875029 34.7307411,1.03196073 34.7658026,0.665781116 L34.8295517,0 L36.4650679,0 L38.100585,0 L38.100585,8.97571578 L38.100585,17.9514306 L36.3506095,17.9514306 L34.6006339,17.9514306 L34.6006339,17.4089423 C34.6006339,16.8192081 34.5329078,16.7560743 34.2412589,17.0739459 C33.4313392,17.9566868 31.0655292,18.48604 29.8007009,18.0675251 Z M33.1786727,15.0340517 C35.1482522,14.0659596 35.168369,11.1467491 33.2124063,10.1388837 C31.2136252,9.10895437 28.9817563,11.1098382 29.6396142,13.3419123 C30.1122956,14.9456932 31.7577786,15.7324522 33.1786727,15.0340517 Z M70.6246019,9.19764282 L70.6501305,0.246585598 L72.3251072,0.219542161 L74.0000838,0.192498734 L74.0000838,9.17059938 L74.0000838,18.1486991 L72.2995785,18.1486991 L70.5990733,18.1486991 L70.6246019,9.19764282 Z M76.6000475,9.17298426 L76.6000475,0.197268479 L78.3000237,0.197268479 L80,0.197268479 L80,9.17298426 L80,18.1486991 L78.3000237,18.1486991 L76.6000475,18.1486991 L76.6000475,9.17298426 Z M46.8754625,17.9770252 L43.2005138,17.9490002 L43.2005138,9.45963894 L43.2005138,0.970276878 L47.0754597,1.01006935 C50.4535065,1.04475911 51.0209336,1.07248096 51.5003979,1.22625105 C53.2176309,1.77698824 54.0513233,2.59083671 54.5673431,4.22019485 C54.7786102,4.88728375 54.8175466,5.17030839 54.7791771,5.7600216 C54.7216589,6.64405188 54.3219815,7.5540062 53.714586,8.18379992 C53.4867692,8.42001807 53.3012658,8.63935212 53.3023568,8.6712089 C53.3034488,8.70306559 53.5367695,8.86228641 53.8208475,9.0250329 C54.6576678,9.50444117 55.5530783,10.4332507 55.9247942,11.2074595 C56.219523,11.8213185 56.2497346,11.9693665 56.2442917,12.773134 C56.2368448,13.8730981 56.077371,14.5529001 55.6250243,15.4129374 C54.9982911,16.6045337 53.7946759,17.484792 52.3640709,17.7978225 C51.4797882,17.9913114 50.9626454,18.0081946 46.8754625,17.9770252 Z M51.2286137,14.8590292 C51.6625627,14.6791608 52.1686606,14.1498244 52.3192045,13.7183617 C52.4907891,13.2265921 52.4677564,12.2441408 52.2762321,11.8854258 C52.0809178,11.5196122 51.6529788,11.1205873 51.2306457,10.9104856 C50.8546409,10.7234307 49.0555231,10.5109666 48.4333287,10.5801398 L48.0004468,10.6282664 L48.0004468,9.17534152 L48.0004468,7.72241706 L48.7254367,7.66152926 C49.6946481,7.58013066 50.2988767,7.36233807 50.706585,6.9474288 C51.0105938,6.63805048 51.0479532,6.53715752 51.0826278,5.93187391 C51.1299521,5.10578503 50.8946774,4.57373961 50.3285233,4.2265533 C49.9798312,4.01272275 49.8240183,3.99198007 48.3254423,3.9598913 L46.7004649,3.9250959 L46.7004649,9.45875014 L46.7004649,14.9924034 L48.8036476,14.9924034 C50.345683,14.9924034 50.992684,14.9568172 51.2286137,14.8590292 Z M8.15459894,17.4827414 C7.99157892,17.2251571 7.1478407,15.9104189 6.27962512,14.5610995 L4.70105126,12.1077948 L4.70105126,10.1543151 L4.70105126,8.20083662 L5.27604323,8.14183036 C6.00994739,8.06651641 6.85991322,7.8261207 7.2769001,7.57592845 C8.33567671,6.940662 8.38925447,5.15365282 7.37583781,4.27600151 C6.80505068,3.78168142 6.13435785,3.61017601 4.75105056,3.60480715 L3.55106732,3.60014974 L3.52540578,10.6771564 L3.49974423,17.7541621 L1.74987217,17.7541621 L0,17.7541621 L0.0255581431,9.29627706 L0.0511161863,0.838391035 L3.60106662,0.808107778 C6.01872816,0.787483635 7.3264421,0.814233251 7.70100937,0.891973119 C9.18264269,1.19947984 10.456293,2.20562168 11.1871528,3.64591168 C12.4032288,6.04240847 11.7864224,8.31939843 9.52011168,9.79992302 C9.15209661,10.0403383 8.58255797,10.3480929 8.25447045,10.4838225 C7.92638283,10.619552 7.64597204,10.7685114 7.63133535,10.8148439 C7.61669865,10.8611754 8.72885542,12.4525727 10.1027949,14.3512808 C11.4767338,16.24999 12.6008831,17.8367683 12.6009041,17.8774549 C12.6009241,17.9181415 11.6672041,17.9513517 10.52597,17.951254 L8.4509989,17.9510775 L8.15459894,17.4827414 Z" id="path1875" fill="#6F7375"></path>
                        </g>
                    </g>
                </g>
            </g>
        </g>
    </g>
</svg>