<?xml version="1.0" encoding="UTF-8"?>
<svg width="49px" height="36px" viewBox="0 0 49 36" version="1.1" xmlns="http://www.w3.org/2000/svg" xmlns:xlink="http://www.w3.org/1999/xlink">
    <!-- Generator: sketchtool 50 (54983) - http://www.bohemiancoding.com/sketch -->
    <title>16F6DA13-6AB8-473B-85E2-00FCD39CEEC4</title>
    <desc>Created with sketchtool.</desc>
    <defs></defs>
    <g id="Landing" stroke="none" stroke-width="1" fill="none" fill-rule="evenodd">
        <g id="Landing-Desktop-HD" transform="translate(-428.000000, -9722.000000)">
            <g id="10-App" transform="translate(0.000000, 8690.000000)">
                <g id="Icons" transform="translate(412.000000, 1027.000000)">
                    <g id="Video">
                        <g id="Icon_ModeVideo" transform="translate(11.000000, 0.000000)">
                            <rect id="Rectangle-path" x="0" y="0" width="58" height="45"></rect>
                            <path d="M8.51785714,6 C7.12728305,6 6,7.1416739 6,8.55 L6,37.45 C6,38.8583261 7.12728305,40 8.51785714,40 L37.0535714,40 C38.4441455,40 39.5714286,38.8583261 39.5714286,37.45 L39.5714286,8.55 C39.5714286,7.1416739 38.4441455,6 37.0535714,6 L8.51785714,6 Z M44.6071429,14.2626453 L44.6071429,31.7373547 L51.8953088,34.1977569 C51.9808879,34.2266473 52.0705062,34.241376 52.1607143,34.241376 C52.624239,34.241376 53,33.860818 53,33.391376 L53,12.608624 C53,12.5172642 52.985457,12.4265019 52.9569305,12.3398304 C52.8103513,11.8944786 52.335047,11.6537926 51.8953088,11.8022432 L44.6071429,14.2626453 Z" id="Shape" stroke="#FFFFFF" stroke-width="1.5"></path>
                        </g>
                    </g>
                </g>
            </g>
        </g>
    </g>
</svg>