<?xml version="1.0" encoding="UTF-8"?>
<svg width="30px" height="38px" viewBox="0 0 30 38" version="1.1" xmlns="http://www.w3.org/2000/svg" xmlns:xlink="http://www.w3.org/1999/xlink">
    <!-- Generator: sketchtool 50 (54983) - http://www.bohemiancoding.com/sketch -->
    <title>1CFF4CAD-FAC4-47C2-AD40-D3FE374ED9A0</title>
    <desc>Created with sketchtool.</desc>
    <defs></defs>
    <g id="Shop" stroke="none" stroke-width="1" fill="none" fill-rule="evenodd">
        <g id="Carousel-1" transform="translate(-976.000000, -890.000000)">
            <g id="02-Icons" transform="translate(274.000000, 884.000000)">
                <g id="Fitsallphones" transform="translate(693.000000, 0.000000)">
                    <g id="Icons/Phonefit-Dark">
                        <g id="Group" transform="translate(9.000000, 6.000000)">
                            <path d="M18.25,11.6272346 L18.25,1 C18.25,0.861928813 18.1380712,0.75 18,0.75 L1,0.75 C0.861928813,0.75 0.75,0.861928813 0.75,1 L0.75,33 C0.75,33.1380712 0.861928813,33.25 1,33.25 L14.25,33.25 L14.25,13.3772346 C14.25,12.4107363 15.0335017,11.6272346 16,11.6272346 L18.25,11.6272346 Z" id="Combined-Shape" stroke="#000000" stroke-width="1.5" fill="#FFFFFF"></path>
                            <rect id="Rectangle-6-Copy" stroke="#000000" stroke-width="1.5" fill="#FFFFFF" x="14.042619" y="11.4448663" width="14.5" height="25.5484168" rx="1"></rect>
                            <circle id="Oval-4" fill="#000000" cx="9.5" cy="29.8887424" r="1.5"></circle>
                            <circle id="Oval-4-Copy" fill="#000000" cx="21.292619" cy="34" r="1.13637206"></circle>
                            <rect id="Rectangle-10" fill="#000000" x="18" y="11" width="7" height="2.27274412" rx="1"></rect>
                        </g>
                    </g>
                </g>
            </g>
        </g>
    </g>
</svg>