<?xml version="1.0" encoding="UTF-8"?>
<svg width="143px" height="37px" viewBox="0 0 143 37" version="1.1" xmlns="http://www.w3.org/2000/svg" xmlns:xlink="http://www.w3.org/1999/xlink">
    <!-- Generator: sketchtool 49.3 (51167) - http://www.bohemiancoding.com/sketch -->
    <title>2BCABD06-3837-44E1-951A-C06B62CE999B</title>
    <desc>Created with sketchtool.</desc>
    <defs>
        <rect id="path-1" x="0" y="0" width="143" height="48"></rect>
    </defs>
    <g id="Shop" stroke="none" stroke-width="1" fill="none" fill-rule="evenodd">
        <g id="Webshop-6.01" transform="translate(-649.000000, -1072.000000)">
            <g id="03-Testimonials" transform="translate(198.000000, 1070.000000)">
                <g id="Testimonials" transform="translate(300.000000, 0.000000)">
                    <g id="Stacked-Group-5">
                        <g id="Forbes">
                            <g id="Forbes-logo" transform="translate(151.000000, 0.000000)">
                                <mask id="mask-2" fill="white">
                                    <use xlink:href="#path-1"></use>
                                </mask>
                                <g id="a"></g>
                                <g id="Group" mask="url(#mask-2)" fill="#000000" fill-rule="nonzero">
                                    <g transform="translate(0.000000, 2.000000)" id="Shape">
                                        <path d="M87.1156,10.6131579 C85.0463261,10.5733531 83.0036531,11.0940827 81.1954,12.1223684 C81.1954,6.74763158 81.1954,1.87921053 81.3574667,0.204473684 L70.3464667,2.22 L70.3464667,3.19368421 L71.5,3.35921053 C72.9776667,3.69026316 73.4734,4.53736842 73.7975333,6.55289474 C74.1312,10.5839474 73.9596,32.0731579 73.7975333,35.5978947 C76.8162765,36.3309691 79.9042217,36.7260183 83.0067333,36.7760526 C91.7202,36.7760526 96.9730667,31.2357895 96.9730667,22.5018421 C96.9730667,15.6178947 92.7021333,10.5839474 87.1156,10.5839474 L87.1156,10.6131579 Z M83.3022667,34.9552632 C82.6401729,34.9908895 81.9763981,34.9352129 81.3288667,34.7897368 C81.1668,32.4431579 81.0047333,22.5310526 81.1668,13.8068421 C81.9547056,13.4925349 82.7903042,13.3211887 83.6359333,13.3005263 C87.2490667,13.3005263 89.2224667,17.6626316 89.2224667,23.0373684 C89.2224667,29.7557895 86.7533333,34.9552632 83.3022667,34.9552632 Z M28.9241333,0.876315789 L0,0.876315789 L0,2.38552632 L1.63973333,2.55105263 C3.7752,2.88210526 4.59506667,4.22578947 4.92873333,7.41947368 C5.34091282,14.8004934 5.34091282,22.1995065 4.92873333,29.5805263 C4.6046,32.7644737 3.7752,34.2834211 1.63973333,34.4489474 L0,34.78 L0,36.1236842 L18.5709333,36.1236842 L18.5709333,34.78 L16.5975333,34.4489474 C14.4620667,34.2834211 13.6422,32.7742105 13.3085333,29.5805263 C13.1464667,27.3994737 12.9844,23.8747368 12.9844,19.5028947 L16.9312,19.6684211 C19.4003333,19.6684211 20.5443333,21.6839474 21.0400667,24.5368421 L22.5177333,24.5368421 L22.5177333,12.6578947 L21.0400667,12.6578947 C20.5443333,15.5107895 19.4003333,17.5263158 16.9312,17.5263158 L12.9844,17.6918421 C12.9844,11.9860526 13.1464667,6.61131579 13.3085333,3.42736842 L19.0285333,3.42736842 C23.4710667,3.42736842 25.7686,6.28026316 27.4083333,11.3142105 L29.0480667,10.8078947 L28.9241333,0.876315789 Z"></path>
                                        <path d="M38.2954,10.2723684 C46.5131333,10.2723684 50.622,15.9781579 50.622,23.5339474 C50.622,30.7489474 46.0174,36.7955263 37.7996667,36.7955263 C29.5819333,36.7955263 25.4730667,31.0897368 25.4730667,23.5339474 C25.4730667,16.3189474 30.0776667,10.2723684 38.2954,10.2723684 Z M37.7996667,11.9471053 C34.1865333,11.9471053 33.1950667,16.9810526 33.1950667,23.5339474 C33.1950667,29.9115789 34.8348,35.1207895 38.1238,35.1207895 C41.9371333,35.1207895 42.8904667,30.0868421 42.8904667,23.5339474 C42.8904667,17.1563158 41.2507333,11.9471053 37.7901333,11.9471053 L37.7996667,11.9471053 Z M99.1466667,23.6994737 C99.1466667,16.8155263 103.4176,10.2723684 111.806933,10.2723684 C118.709067,10.2723684 121.998067,15.4815789 121.998067,22.3557895 L106.744733,22.3557895 C106.582667,28.5678947 109.538,33.0663158 115.4582,33.0663158 C117.477091,33.1519879 119.459161,32.4956184 121.044733,31.2163158 L121.702533,32.0536842 C119.310335,35.1000804 115.66775,36.8379197 111.845067,36.7565789 C104.4472,36.7565789 99.1848,31.3818421 99.1848,23.6605263 L99.1466667,23.6994737 Z M106.7066,20.5155263 L114.4286,20.35 C114.4286,16.9907895 113.932867,11.9568421 111.1396,11.9568421 C108.346333,11.9568421 106.868667,16.6597368 106.697067,20.5155263 L106.7066,20.5155263 Z M141.522333,11.6160526 C139.110249,10.6763701 136.543488,10.2201602 133.9624,10.2723684 C127.880133,10.2723684 124.104933,13.9626316 124.104933,18.3344737 C124.104933,22.7063158 126.8982,24.5465789 130.845,25.8902632 C134.953867,27.3994737 136.1074,28.5776316 136.1074,30.5931579 C136.110603,31.6805953 135.668533,32.7198801 134.888124,33.4596188 C134.107716,34.1993572 133.060044,34.5721765 131.998533,34.4878947 C128.8716,34.4878947 126.574067,32.6378947 124.762733,27.6039474 L123.6092,27.935 L123.771267,35.3252632 C126.581223,36.323558 129.538336,36.8208927 132.513333,36.7955263 C138.919733,36.7955263 143,33.4363158 143,28.2368421 C143,24.7121053 141.188667,22.6965789 136.917733,21.0218421 C132.313133,19.1718421 130.6734,18.0034211 130.6734,15.8223684 C130.617734,14.8561832 130.957886,13.9098555 131.612415,13.2099608 C132.266944,12.5100661 133.176918,12.1196199 134.124467,12.1321053 C137.0798,12.1321053 139.0532,13.9821053 140.530867,18.5097368 L141.6844,18.1786842 L141.522333,11.6355263 L141.522333,11.6160526 Z M71.9957333,10.9442105 C69.2024667,9.26947368 64.2737333,10.1068421 61.6425333,16.1436842 L61.8046,10.3015789 L50.7936,12.4534211 L50.7936,13.4271053 L51.9471333,13.5926316 C53.4248,13.7581579 54.0826,14.5663158 54.2446667,16.7863158 C54.4917247,21.6514672 54.4917247,26.5264275 54.2446667,31.3915789 C54.0826,33.4071053 53.4248,34.41 51.9471333,34.5852632 L50.7936,34.7507895 L50.7936,36.1236842 L66.0469333,36.1236842 L66.0469333,34.78 L64.0735333,34.6144737 C62.4338,34.4489474 61.9380667,33.4363158 61.776,31.4207895 C61.4688972,26.8837465 61.4147875,22.3325321 61.6139333,17.7892105 C62.4338,16.6110526 66.0564667,15.6081579 69.3359333,17.7892105 L71.9671333,10.9052632 L71.9957333,10.9442105 Z"></path>
                                    </g>
                                </g>
                            </g>
                        </g>
                    </g>
                </g>
            </g>
        </g>
    </g>
</svg>