<?xml version="1.0" encoding="UTF-8"?>
<svg width="214px" height="19px" viewBox="0 0 214 19" version="1.1" xmlns="http://www.w3.org/2000/svg" xmlns:xlink="http://www.w3.org/1999/xlink">
    <!-- Generator: sketchtool 49.3 (51167) - http://www.bohemiancoding.com/sketch -->
    <title>588727E1-0853-4262-840C-916CADB706E3</title>
    <desc>Created with sketchtool.</desc>
    <defs>
        <radialGradient cx="17.5583726%" cy="17.466%" fx="17.5583726%" fy="17.466%" r="0.39337931%" gradientTransform="translate(0.175584,0.174660),scale(0.630435,1.000000),translate(-0.175584,-0.174660)" id="radialGradient-1">
            <stop stop-color="#9DD5F6" offset="0%"></stop>
            <stop stop-color="#98D3F5" offset="7%"></stop>
            <stop stop-color="#89CEF3" offset="16%"></stop>
            <stop stop-color="#70C6EF" offset="25%"></stop>
            <stop stop-color="#4EBBEA" offset="35%"></stop>
            <stop stop-color="#23ADE3" offset="45%"></stop>
            <stop stop-color="#0DA6E0" offset="50%"></stop>
            <stop stop-color="#2E77BC" offset="100%"></stop>
        </radialGradient>
        <linearGradient x1="0%" y1="47.195%" x2="100%" y2="47.195%" id="linearGradient-2">
            <stop stop-color="#231E5C" offset="0%"></stop>
            <stop stop-color="#034EA2" offset="100%"></stop>
        </linearGradient>
    </defs>
    <g id="Shop" stroke="none" stroke-width="1" fill="none" fill-rule="evenodd">
        <g id="Carousel-2" transform="translate(-906.000000, -754.000000)">
            <g id="01-Hero" transform="translate(-175.000000, 0.000000)">
                <g id="Paymenticons" transform="translate(1081.000000, 748.000000)">
                    <g id="Badges/Payment-Amex" transform="translate(138.000000, 0.000000)">
                        <g id="badge-payment-amex-48">
                            <rect id="Rectangle-path" x="0" y="0" width="30" height="30"></rect>
                            <g id="Group" transform="translate(0.625000, 6.250000)" fill-rule="nonzero">
                                <path d="M28.75,2.175 C28.75,0.97458125 27.7838203,0 26.59375,0 L2.15625,0 C0.966179688,0 0,0.97458125 0,2.175 L0,15.95 C0,17.1504188 0.966179688,18.125 2.15625,18.125 L26.59375,18.125 C27.7838203,18.125 28.75,17.1504188 28.75,15.95 L28.75,2.175 Z" id="Shape" fill="url(#radialGradient-1)"></path>
                                <path d="M6.73311525,9.31248906 L8.05494144,9.31248906 L7.39400588,7.64585 L6.73311525,9.31248906 Z M25.15625,6.145825 L21.7690508,6.145825 L20.9428926,7.06249687 L20.1993457,6.145825 L13.0118457,6.145825 L12.3509551,7.64585 L11.6900195,6.145825 L8.79848825,6.145825 L8.79848825,6.81250781 L8.46799806,6.145825 L5.98956836,6.145825 L3.59375,11.979175 L6.48528125,11.979175 L6.81572656,11.0625031 L7.64188475,11.0625031 L7.97233006,11.979175 L11.1943066,11.979175 L11.1943066,11.3124922 L11.4421856,11.979175 L13.094457,11.979175 L13.342291,11.2291625 L13.342291,11.979175 L19.9515117,11.979175 L20.7776699,11.0625031 L21.5211719,11.979175 L24.908416,11.979175 L22.7604316,9.0625 L25.15625,6.145825 Z M15.1598301,11.1458328 L14.2510606,11.1458328 L14.2510606,7.89583906 L12.8466231,11.1458328 L12.0204648,11.1458328 L10.6160273,7.89583906 L10.6160273,11.1458328 L8.71587694,11.1458328 L8.38543163,10.2291609 L6.40266994,10.2291609 L6.07217969,11.1458328 L4.9981875,11.1458328 L6.73311525,6.97916719 L8.13755275,6.97916719 L9.70725781,10.8958438 L9.70725781,6.97916719 L11.2769179,6.97916719 L12.5161328,9.8125125 L13.6727812,6.97916719 L15.2424414,6.97916719 L15.2424414,11.1458328 L15.1598301,11.1458328 Z M23.3387109,11.1458328 L22.0994961,11.1458328 L21.0255039,9.72918281 L19.7862891,11.1458328 L16.0685996,11.1458328 L16.0685996,6.97916719 L19.8689004,6.97916719 L21.0255039,8.31253281 L22.2647188,6.97916719 L23.4213222,6.97916719 L21.6038281,9.0625 L23.3387109,11.1458328 Z M16.9773691,7.81250937 L16.9773691,8.56252187 L19.0427422,8.56252187 L19.0427422,9.39581875 L16.9773691,9.39581875 L16.9773691,10.2291609 L19.2905762,10.2291609 L20.3645684,8.97917031 L19.3731875,7.81250937 L16.9773691,7.81250937 Z" id="Shape" fill="#FFFFFF"></path>
                            </g>
                        </g>
                    </g>
                    <g id="Badges/Payment-Discover" transform="translate(184.000000, 0.000000)">
                        <g id="badge-payment-discover-48">
                            <rect id="Rectangle-path" x="0" y="0" width="30" height="30"></rect>
                            <g id="Group" transform="translate(0.625000, 6.250000)" fill-rule="nonzero">
                                <path d="M28.75,2.175 C28.75,0.97458125 27.7838203,0 26.59375,0 L2.15625,0 C0.966179688,0 0,0.97458125 0,2.175 L0,15.95 C0,17.1504188 0.966179688,18.125 2.15625,18.125 L26.59375,18.125 C27.7838203,18.125 28.75,17.1504188 28.75,15.95 L28.75,2.175 Z" id="Shape" fill="#FFFFFF"></path>
                                <g transform="translate(3.593750, 7.204375)" id="Shape">
                                    <path d="M1.76017383,2.73864219 C1.55034375,2.92967969 1.27780274,3.01305469 0.846417969,3.01305469 L0.667134769,3.01305469 L0.667134769,0.729803125 L0.846417969,0.729803125 C1.27780274,0.729803125 1.53960743,0.807604688 1.76017383,1.00901875 C1.99102734,1.21641406 2.13001563,1.53781563 2.13001563,1.86859688 C2.13001563,2.20010313 1.99102734,2.53124688 1.76017383,2.73864219 M0.980105469,0.144728125 L0,0.144728125 L0,3.59767656 L0.97493945,3.59767656 C1.49338281,3.59767656 1.86762696,3.47424531 2.19632031,3.1990625 C2.58682618,2.87303906 2.81776953,2.38171563 2.81776953,1.87358125 C2.81776953,0.85459375 2.06299219,0.144728125 0.980105469,0.144728125" fill="#231F20"></path>
                                    <polygon fill="#231F20" points="3.125 0.145 3.7925 0.145 3.7925 3.5975 3.125 3.5975"></polygon>
                                    <path d="M5.42539453,1.46975625 C5.02464648,1.320225 4.90704101,1.22153438 4.90704101,1.03502813 C4.90704101,0.817573438 5.11664649,0.65231875 5.40450586,0.65231875 C5.60449805,0.65231875 5.76886719,0.73515 5.94289453,0.931851563 L6.29225194,0.470479688 C6.00511133,0.217182813 5.66168359,0.0876796875 5.28640625,0.0876796875 C4.68072461,0.0876796875 4.21870313,0.51185 4.21870313,1.07707813 C4.21870313,1.55272344 4.43378906,1.79632344 5.06094336,2.02388281 C5.32229883,2.11690938 5.45540234,2.17885156 5.52247071,2.22049375 C5.65593359,2.30849063 5.72264258,2.43291875 5.72264258,2.57787344 C5.72264258,2.85763281 5.50221094,3.0649375 5.20428906,3.0649375 C4.88583789,3.0649375 4.62928906,2.90425938 4.47556641,2.60433594 L4.04418164,3.02338594 C4.35185156,3.47882188 4.72124414,3.68068906 5.22940039,3.68068906 C5.92321875,3.68068906 6.41003712,3.21532969 6.41003712,2.54701563 C6.41003712,1.99823594 6.18493359,1.74996875 5.42539453,1.46975625 M6.62063087,1.87362656 C6.62063087,2.88853594 7.41071681,3.67556875 8.4274785,3.67556875 C8.71493356,3.67556875 8.9611055,3.61852031 9.26455275,3.47424531 L9.26455275,2.6814125 C8.99767187,2.95097656 8.76124806,3.05963594 8.45851956,3.05963594 C7.78599413,3.05963594 7.30874412,2.56785938 7.30874412,1.86864219 C7.30874412,1.205675 7.80117775,0.68276875 8.4274785,0.68276875 C8.74597462,0.68276875 8.9869805,0.79731875 9.26455275,1.07127813 L9.26455275,0.2787625 C8.97152738,0.128778125 8.7305215,0.0667 8.44324612,0.0667 C7.43165037,0.0667 6.62063087,0.8696375 6.62063087,1.87362656" fill="#231F20"></path>
                                    <polygon fill="#231F20" points="14.55875 2.464375 13.64625 0.145 12.91625 0.145 14.369375 3.68625 14.72875 3.68625 16.2075 0.145 15.48375 0.145"></polygon>
                                    <polygon fill="#231F20" points="16.509375 3.5975 18.403125 3.5975 18.403125 3.013125 17.17625 3.013125 17.17625 2.08125 18.3575 2.08125 18.3575 1.49625 17.17625 1.49625 17.17625 0.73 18.403125 0.73 18.403125 0.145 16.509375 0.145"></polygon>
                                    <path d="M19.7070469,1.73447188 L19.5120859,1.73447188 L19.5120859,0.688659375 L19.7176035,0.688659375 C20.1335351,0.688659375 20.3595821,0.86438125 20.3595821,1.20041875 C20.3595821,1.5475125 20.1335351,1.73447188 19.7070469,1.73447188 M21.0466621,1.16416875 C21.0466621,0.517695313 20.6052149,0.144728125 19.8351641,0.144728125 L18.8450859,0.144728125 L18.8450859,3.59772188 L19.5120859,3.59772188 L19.5120859,2.210525 L19.5990996,2.210525 L20.5233672,3.59772188 L21.3444941,3.59772188 L20.2668633,2.14300938 C20.7697637,2.03983281 21.0466621,1.69282969 21.0466621,1.16416875" fill="#231F20"></path>
                                    <path d="M13.1170078,1.87349063 C13.1170078,2.88749375 12.3025293,3.70937188 11.2968184,3.70937188 C10.2916016,3.70937188 9.47676369,2.88749375 9.47676369,1.87349063 C9.47676369,0.859396875 10.2916016,0.03751875 11.2968184,0.03751875 C12.3025293,0.03751875 13.1170078,0.859396875 13.1170078,1.87349063" fill="#EE7623"></path>
                                    <path d="M21.3027168,0.48810625 C21.1876719,0.48810625 21.0937402,0.391590625 21.0937402,0.27115 C21.0937402,0.150346875 21.1865039,0.053921875 21.3027168,0.053921875 C21.4171328,0.053921875 21.5103457,0.152521875 21.5103457,0.27115 C21.5103457,0.390548438 21.4171328,0.48810625 21.3027168,0.48810625 M21.3036601,0.006253125 C21.2340084,0.0058888919 21.1671069,0.0336468039 21.1178676,0.0833397556 C21.0686284,0.133032708 21.0411441,0.200530248 21.041541,0.2707875 C21.0413617,0.340994735 21.0689102,0.408383156 21.1180969,0.458057084 C21.1672836,0.507731012 21.234058,0.535599747 21.3036601,0.535503125 C21.4460176,0.535503125 21.5625,0.416376563 21.5625,0.2707875 C21.5625,0.125878125 21.4460176,0.006253125 21.3036601,0.006253125" fill="#231F20"></path>
                                </g>
                                <path d="M28.75,15.95 C28.7479336,17.1511891 27.784584,18.1229156 26.59375,18.125 L7.1875,18.125 C21.1376289,15.6653922 28.75,10.2727516 28.75,10.2727516 L28.75,15.95 Z" id="Shape" fill="#EE7623"></path>
                            </g>
                        </g>
                    </g>
                    <g id="Badges/Payment-Mastercard" transform="translate(92.000000, 0.000000)">
                        <g id="badge-payment-mastercard-48">
                            <rect id="Rectangle-path" x="0" y="0" width="30" height="30"></rect>
                            <g id="Group" transform="translate(0.625000, 6.250000)" fill-rule="nonzero">
                                <path d="M28.75,2.175 C28.75,0.97458125 27.7838203,0 26.59375,0 L2.15625,0 C0.966179688,0 0,0.97458125 0,2.175 L0,15.95 C0,17.1504188 0.966179688,18.125 2.15625,18.125 L26.59375,18.125 C27.7838203,18.125 28.75,17.1504188 28.75,15.95 L28.75,2.175 Z" id="Shape" fill="#111E2F"></path>
                                <path d="M9.96623244,14.4400062 L9.96623244,13.7198547 C9.96690625,13.7100219 9.96726563,13.7001891 9.96726563,13.6903109 C9.96726563,13.4559094 9.77603319,13.2630594 9.54365231,13.2630594 C9.53538669,13.2630594 9.52712106,13.2632859 9.51885544,13.2637844 C9.35870056,13.2533151 9.20555944,13.3314713 9.11905075,13.4678266 C9.04019681,13.3355144 8.89596606,13.2572445 8.74305469,13.2637844 C8.60992206,13.257065 8.48319969,13.3218907 8.40991406,13.4342047 L8.40991406,13.2926031 L8.1623945,13.2926031 L8.1623945,14.4400062 L8.41229494,14.4400062 L8.41229494,13.8086672 C8.41064062,13.7966105 8.40981506,13.7844529 8.40982419,13.7722813 C8.40982419,13.6247891 8.530125,13.5034422 8.67634569,13.5034422 C8.68115231,13.5034422 8.68591406,13.5035781 8.69072069,13.5038047 C8.85491012,13.5038047 8.93819531,13.6118297 8.93819531,13.8062656 L8.93819531,14.4448094 L9.18805075,14.4448094 L9.18805075,13.8086672 C9.18656181,13.7970216 9.18581156,13.785292 9.18580469,13.77355 C9.18580469,13.6254234 9.3066445,13.5034875 9.45353906,13.5034875 C9.45785156,13.5034875 9.46216406,13.5036234 9.4665215,13.5038047 C9.63547263,13.5038047 9.71637694,13.6118297 9.71637694,13.8062656 L9.71637694,14.4448094 L9.96623244,14.4400062 Z M13.6631679,13.2926031 L13.2562207,13.2926031 L13.2562207,12.9445125 L13.0063203,12.9445125 L13.0063203,13.2926031 L12.7802734,13.2926031 L12.7802734,13.5206156 L13.011082,13.5206156 L13.011082,14.0487328 C13.011082,14.3151703 13.1134141,14.4735828 13.406125,14.4735828 C13.5154839,14.4739538 13.6227242,14.4431685 13.7155019,14.3847703 L13.6441211,14.1711219 C13.5777513,14.2110711 13.5024179,14.2333812 13.4251719,14.2359641 C13.3061738,14.2359641 13.2609824,14.1591594 13.2609824,14.0439297 L13.2609824,13.5206156 L13.6655488,13.5206156 L13.6631679,13.2926031 Z M15.773957,13.2637844 C15.6510638,13.2602574 15.5360675,13.3246939 15.4741035,13.4318031 L15.4741035,13.2926031 L15.2290098,13.2926031 L15.2290098,14.4400062 L15.4764844,14.4400062 L15.4764844,13.7966594 C15.4764844,13.6070266 15.5573887,13.5014031 15.7144804,13.5014031 C15.7674112,13.5006778 15.8199657,13.5104702 15.8691465,13.5302219 L15.9452891,13.2902016 C15.8887675,13.2698107 15.8292225,13.2592538 15.7691953,13.2589812 L15.773957,13.2637844 Z M12.5827519,13.3838172 C12.4426642,13.2997927 12.2815956,13.2581296 12.118709,13.2637844 C11.8307598,13.2637844 11.6427617,13.4030297 11.6427617,13.6310422 C11.6427617,13.8182734 11.7807617,13.9335031 12.0354238,13.9695266 L12.1544219,13.9862922 C12.290041,14.0055047 12.3542793,14.0415281 12.3542793,14.106325 C12.3542793,14.1951375 12.2638516,14.2455703 12.0949004,14.2455703 C11.9589954,14.2495178 11.8257241,14.20724 11.7165234,14.1255375 L11.5975254,14.3199734 C11.7417012,14.4214943 11.9143751,14.4736548 12.0901387,14.4687797 C12.4185625,14.4687797 12.6089414,14.3127688 12.6089414,14.0943172 C12.6089414,13.8759109 12.4589922,13.7870531 12.2115176,13.751075 L12.0925196,13.7342641 C11.9854258,13.7198547 11.8997598,13.6982406 11.8997598,13.6214359 C11.8997598,13.5446313 11.9806641,13.4870391 12.1163281,13.4870391 C12.2417051,13.4884891 12.3646113,13.5223828 12.4732774,13.5854578 L12.5827519,13.3838172 Z M19.2114688,13.2637844 C19.0885756,13.2602574 18.9735793,13.3246939 18.9116153,13.4318031 L18.9116153,13.2926031 L18.6665215,13.2926031 L18.6665215,14.4400062 L18.9139961,14.4400062 L18.9139961,13.7966594 C18.9139961,13.6070266 18.9949453,13.5014031 19.1519922,13.5014031 C19.2049229,13.5006778 19.2574774,13.5104702 19.3066582,13.5302219 L19.3828008,13.2902016 C19.3262804,13.2698065 19.2667346,13.2592494 19.206707,13.2589812 L19.2114688,13.2637844 Z M16.0226446,13.8639031 C16.0223751,13.8709988 16.0222402,13.8780991 16.0222402,13.8852 C16.0222402,14.2032484 16.281709,14.4649281 16.5969707,14.4649281 C16.6077969,14.4649281 16.618668,14.4646109 16.6294941,14.4639766 C16.7780818,14.4716142 16.9241122,14.4228051 17.0387774,14.3271781 L16.9198242,14.1255375 C16.8342555,14.1913252 16.7299351,14.2275239 16.6223516,14.2287594 C16.4336347,14.2133531 16.2865156,14.0524484 16.2865156,13.8615016 C16.2865156,13.6705547 16.4336347,13.5096047 16.6223516,13.4942437 C16.7298945,13.4954219 16.8342481,13.5316266 16.9198242,13.5974203 L17.0387774,13.395825 C16.9241058,13.3002052 16.7780841,13.2513829 16.6294941,13.2589812 C16.618668,13.2583469 16.6077969,13.258075 16.5969707,13.258075 C16.281709,13.258075 16.0222402,13.5197547 16.0222402,13.8377578 C16.0222402,13.8448719 16.022375,13.8519859 16.0226446,13.8591 L16.0226446,13.8639031 Z M18.3404785,13.8639031 L18.3404785,13.2926031 L18.0930039,13.2926031 L18.0930039,13.4318031 C18.0077049,13.3211871 17.8748929,13.2586715 17.7360547,13.2637844 C17.4096973,13.2637844 17.1411094,13.5346625 17.1411094,13.8639031 C17.1411094,14.1930984 17.4096973,14.4639766 17.7360547,14.4639766 C17.8748929,14.4690894 18.0077049,14.4065738 18.0930039,14.2959578 L18.0930039,14.4352031 L18.3404785,14.4352031 L18.3404785,13.8639031 Z M17.4195351,13.8639031 C17.4301816,13.6816109 17.5817929,13.5374266 17.7628281,13.5374266 C17.9514551,13.5374266 18.1067051,13.6940266 18.1067051,13.8842938 C18.1067051,14.0738812 17.9525781,14.2301641 17.764625,14.2311609 L17.7602676,14.2311609 C17.5729434,14.2311609 17.4187715,14.0756937 17.4187715,13.8867406 C17.4187715,13.8790828 17.419041,13.8714703 17.4195351,13.8639031 Z M14.4329941,13.2637844 C14.1097813,13.2683609 13.8463144,13.5378344 13.8463144,13.8639031 C13.8463144,14.1931437 14.1149023,14.4640672 14.4413047,14.4640672 L14.4496601,14.4639766 C14.6208404,14.4728353 14.7891797,14.4172355 14.9220137,14.3079656 L14.8030156,14.1231359 C14.7090564,14.1991231 14.592672,14.2413591 14.4722559,14.2431687 C14.3032148,14.2578047 14.1511992,14.1323344 14.1319726,13.9623219 L14.9767734,13.9623219 L14.9767734,13.8663047 C14.9767734,13.5062062 14.7554434,13.2661859 14.4365429,13.2661859 L14.4329941,13.2637844 Z M14.4329941,13.4870391 C14.4350003,13.4869859 14.4370069,13.4869557 14.4390137,13.4869484 C14.5914785,13.4869484 14.7177539,13.6116937 14.7209434,13.7654844 L14.1259981,13.7654844 C14.1348926,13.6062109 14.2701973,13.4816016 14.4282324,13.4870391 L14.4329941,13.4870391 Z M20.6333809,13.8663047 L20.6333809,12.8317297 L20.3953848,12.8317297 L20.3953848,13.4318031 C20.3100858,13.3211871 20.1772738,13.2586715 20.0384356,13.2637844 C19.7120781,13.2637844 19.4434903,13.5346625 19.4434903,13.8639031 C19.4434903,14.1930984 19.7120781,14.4639766 20.0384356,14.4639766 C20.1772738,14.4690894 20.3100858,14.4065738 20.3953848,14.2959578 L20.3953848,14.4352031 L20.6333809,14.4352031 L20.6333809,13.8663047 Z M21.0462578,14.2731656 C21.0617109,14.2729844 21.0770742,14.2758391 21.0914492,14.2815484 C21.1051054,14.2871672 21.1176387,14.2953234 21.1283301,14.3055641 C21.1387969,14.3158953 21.1472871,14.3281297 21.1533516,14.3415875 C21.1655266,14.369918 21.1655266,14.4020695 21.1533516,14.4304 C21.1472863,14.443849 21.1388025,14.4560477 21.1283301,14.4663781 C21.1176233,14.4766261 21.1051159,14.4847705 21.0914492,14.4903937 C21.077209,14.4967375 21.0618008,14.5 21.0462578,14.5 C21.0002371,14.4995853 20.9585593,14.472499 20.9391641,14.4304 C20.9271273,14.4020407 20.9271273,14.3699468 20.9391641,14.3415875 C20.9452121,14.3281265 20.9536806,14.3159125 20.9641406,14.3055641 C20.9748769,14.2953234 20.9873653,14.2871672 21.0010215,14.2815484 C21.0165196,14.2753406 21.0331406,14.2724859 21.0498066,14.2731656 L21.0462578,14.2731656 Z M21.0462578,14.4759844 C21.0581172,14.476075 21.0698867,14.4736281 21.0807578,14.4687797 C21.091,14.4642031 21.1002539,14.4576781 21.1081153,14.4496125 C21.1388068,14.4155901 21.1388068,14.3636021 21.1081153,14.3295797 C21.0919516,14.3126023 21.0695931,14.3030538 21.0462578,14.3031625 C21.0343953,14.3032074 21.0226629,14.3056575 21.0117578,14.3103672 C21.00107,14.3148053 20.9913596,14.3213352 20.9831875,14.3295797 C20.9524959,14.3636021 20.9524959,14.4155901 20.9831875,14.4496125 C20.9913633,14.4578141 21.0010664,14.4643391 21.0117578,14.4687797 C21.0237519,14.4740359 21.0367344,14.4764828 21.0498066,14.4759844 L21.0462578,14.4759844 Z M21.0534004,14.3331594 C21.0644961,14.3326156 21.075457,14.3360141 21.0843066,14.3427656 C21.0917104,14.3489208 21.0957095,14.358305 21.0950429,14.3679594 C21.095366,14.3760238 21.0923374,14.3838583 21.0866875,14.3895734 C21.0798071,14.3959152 21.0710073,14.3997307 21.0617109,14.4004031 L21.0962109,14.4400062 L21.0688535,14.4400062 L21.0367344,14.4004031 L21.0259981,14.4004031 L21.0259981,14.4400062 L21.0034024,14.4400062 L21.0034024,14.3343828 L21.0534004,14.3331594 Z M21.0272109,14.3535953 L21.0272109,14.3936279 L21.0636484,14.3936279 C21.0701316,14.3955834 21.0770403,14.3955834 21.0835234,14.3936279 C21.0858362,14.3888985 21.0858362,14.383353 21.0835234,14.3786236 C21.0858376,14.3738723 21.0858376,14.3683074 21.0835234,14.3635562 C21.0770311,14.3616647 21.0701408,14.3616647 21.0636484,14.3635562 L21.0272109,14.3535953 Z M19.7183672,13.8663047 C19.7290137,13.6840125 19.880625,13.5398281 20.0616153,13.5398281 C20.2502871,13.5398281 20.4054922,13.6964281 20.4054922,13.8866953 C20.4054922,14.0762828 20.2513653,14.2325656 20.0634121,14.2335625 L20.0590996,14.2335625 C19.8717754,14.2335625 19.7176035,14.0780953 19.7176035,13.8891422 C19.7176035,13.8814844 19.7178731,13.8738719 19.7183672,13.8663047 Z M11.3619551,13.8663047 L11.3619551,13.2926031 L11.1144804,13.2926031 L11.1144804,13.4318031 C11.0291626,13.3211859 10.8963372,13.2586717 10.7574863,13.2637844 C10.4311289,13.2637844 10.1625859,13.5346625 10.1625859,13.8639031 C10.1625859,14.1930984 10.4311289,14.4639766 10.7574863,14.4639766 C10.8963372,14.4690892 11.0291626,14.4065751 11.1144804,14.2959578 L11.1144804,14.4352031 L11.3619551,14.4352031 L11.3619551,13.8663047 Z M10.4410117,13.8663047 C10.4516582,13.6840125 10.6032695,13.5398281 10.7842598,13.5398281 C10.9729316,13.5398281 11.1281367,13.6964281 11.1281367,13.8866953 C11.1281367,14.0762828 10.9740098,14.2325656 10.7860566,14.2335625 L10.7793632,14.2336078 C10.5920391,14.2336078 10.4378672,14.0781406 10.4378672,13.8891422 C10.4378672,13.8815297 10.4381367,13.8739172 10.4386309,13.8663047 L10.4410117,13.8663047 Z" id="Shape" fill="#FFFFFF"></path>
                                <g transform="translate(7.412500, 3.625000)" id="Shape">
                                    <polygon fill="#FF5F00" points="5.08875 0.92375 8.836875 0.92375 8.836875 7.71875 5.08875 7.71875"></polygon>
                                    <path d="M5.32652148,4.32186094 C5.32550768,2.99589699 5.92876081,1.7430444 6.96257619,0.924057812 C6.20780408,0.325790376 5.27570656,0.000549170154 4.31577929,0.0004984375 C1.96591601,0.0004984375 0.0322539063,1.950975 0.0322539063,4.32127188 C0.0322539063,6.69156875 1.96591601,8.642 4.31577929,8.642 C5.27570656,8.64194925 6.20780408,8.31670806 6.96257619,7.71844063 C5.92910129,6.89971475 5.32588703,5.64739398 5.32652149,4.32186094 Z" fill="#EB001B"></path>
                                    <path d="M13.8935273,4.32186094 C13.8934824,6.6921125 11.9598653,8.64249844 9.61000194,8.64249844 C8.64980169,8.64244069 7.71745644,8.31701481 6.96257619,7.71844063 C7.99561863,6.89904019 8.59888325,5.64687889 8.59925975,4.32127187 C8.598877,2.99565361 7.995615,1.74348114 6.96257619,0.924057812 C7.71746494,0.325499266 8.64980463,7.52953975e-05 9.61000194,0 C11.9598653,0 13.8934824,1.95038594 13.8935274,4.3206375 L13.8935274,4.32186094 Z" fill="#F79E1B"></path>
                                </g>
                            </g>
                        </g>
                    </g>
                    <g id="Badges/Payment-Paypal">
                        <g id="badge-payment-paypal-48">
                            <rect id="Rectangle-path" x="0" y="0" width="30" height="30"></rect>
                            <g id="Group" transform="translate(0.625000, 6.250000)" fill-rule="nonzero">
                                <path d="M28.75,2.175 C28.75,0.97458125 27.7838203,0 26.59375,0 L2.15625,0 C0.966179688,0 0,0.97458125 0,2.175 L0,15.95 C0,17.1504188 0.966179688,18.125 2.15625,18.125 L26.59375,18.125 C27.7838203,18.125 28.75,17.1504188 28.75,15.95 L28.75,2.175 Z" id="Shape" fill="#FFFFFF"></path>
                                <g transform="translate(8.894375, 3.625000)" id="Shape">
                                    <path d="M1.34024414,7.94654375 L0.492792969,7.94654375 C0.434833513,7.94654162 0.38548628,7.9890725 0.376445313,8.04682031 L0.0336914062,10.2388125 C0.0304805331,10.2593984 0.0363793869,10.2803691 0.0498300609,10.2961864 C0.063280735,10.3120037 0.0829305206,10.3210767 0.103589844,10.3210094 L0.50815625,10.3210094 C0.566161809,10.3210268 0.615544916,10.2784429 0.624548828,10.2206422 L0.716953125,9.62945 C0.725896269,9.57167031 0.77523545,9.52907506 0.833210938,9.52908281 L1.10148438,9.52908281 C1.65968359,9.52908281 1.9819082,9.25661875 2.06604688,8.716675 C2.10396094,8.48041562 2.06761914,8.29477031 1.95796484,8.16481406 C1.83752929,8.02207969 1.62388086,7.94654375 1.34024414,7.94654375 Z M1.43803906,8.747125 C1.39167969,9.05389062 1.15934375,9.05389062 0.93468945,9.05389062 L0.806796875,9.05389062 L0.896505856,8.48105 C0.901922569,8.44642075 0.931514137,8.42091562 0.966269531,8.42092031 L1.02489258,8.42092031 C1.17794141,8.42092031 1.32227539,8.42092031 1.39689062,8.50887188 C1.44136328,8.56143437 1.45497461,8.63941719 1.43803906,8.747125 Z M3.87343359,8.73724688 L3.46760937,8.73724688 C3.43306445,8.73724688 3.40319141,8.76275781 3.3978457,8.79737656 L3.37987696,8.91188125 L3.35148633,8.870375 C3.26361914,8.74177812 3.06775977,8.69877656 2.87216992,8.69877656 C2.42375976,8.69877656 2.04075586,9.04138437 1.96614063,9.52196875 C1.92732813,9.76167188 1.98249219,9.99095313 2.11730274,10.1508156 C2.24097266,10.2977641 2.41791993,10.3590266 2.62846875,10.3590266 C2.98982031,10.3590266 3.19017188,10.1246703 3.19017188,10.1246703 L3.17206836,10.2384047 C3.16524023,10.2819047 3.19848242,10.3208734 3.24169726,10.3208734 L3.60727148,10.3208734 C3.66527401,10.3209068 3.71465311,10.2783099 3.72361914,10.2205063 L3.94292773,8.81953437 C3.94622086,8.79899375 3.94041026,8.77803025 3.92703343,8.76219081 C3.91365661,8.74635144 3.89406171,8.7372325 3.87343359,8.73724688 Z M3.30777734,9.53397656 C3.26860547,9.76783437 3.08460547,9.92484219 2.84988868,9.92484219 C2.73205859,9.92484219 2.63790234,9.88668906 2.5774375,9.81446094 C2.51742187,9.74273125 2.49464649,9.64055156 2.51369336,9.52681719 C2.55025977,9.29499844 2.7374043,9.13287031 2.96848243,9.13287031 C3.08375195,9.13287031 3.17741406,9.17152187 3.23913672,9.24433906 C3.30094922,9.31797187 3.32547656,9.42074063 3.30777734,9.53397656 Z M6.03475976,8.73724688 L5.62695899,8.73724688 C5.58805664,8.73724688 5.55149024,8.75677656 5.52938867,8.78940156 L4.9669668,9.62505469 L4.72856641,8.82202656 C4.71353594,8.771727 4.66762488,8.73728881 4.61554297,8.73724688 L4.21483984,8.73724688 C4.19201123,8.73720456 4.17056686,8.74828256 4.15725922,8.76699256 C4.14395158,8.78570256 4.14041813,8.80974231 4.14777149,8.83154219 L4.59694531,10.1611469 L4.17463477,10.7624891 C4.14148243,10.8098859 4.1749043,10.875 4.23231446,10.875 L4.63957618,10.875 C4.67825391,10.875 4.71446094,10.8560141 4.73638281,10.8239781 L6.09275391,8.84916875 C6.12523242,8.80190781 6.09185547,8.73724688 6.03475976,8.73724688 Z" fill="#002F86"></path>
                                    <path d="M7.38493162,7.94654375 L6.53734569,7.94654375 C6.47942725,7.94660519 6.43014106,7.98911631 6.42108787,8.04682031 L6.07833398,10.2388125 C6.07512933,10.2593592 6.08099957,10.2802914 6.09439975,10.2961001 C6.10779992,10.3119088 6.12738769,10.3210104 6.14800781,10.3210094 L6.58294137,10.3210094 C6.62332619,10.3210094 6.657916,10.2912844 6.66425,10.250775 L6.76150587,9.62945 C6.77042875,9.57167738 6.81975325,9.52907825 6.87771875,9.52908281 L7.14590231,9.52908281 C7.70423631,9.52908281 8.02628125,9.25661875 8.11055469,8.716675 C8.1486035,8.48041562 8.11203712,8.29477031 8.00238281,8.16481406 C7.88203712,8.02207969 7.66856837,7.94654375 7.38493162,7.94654375 Z M7.48268162,8.747125 C7.436457,9.05389062 7.20412106,9.05389062 6.979332,9.05389062 L6.85157419,9.05389062 L6.94141794,8.48105 C6.94673856,8.446422 6.97630756,8.42088706 7.01104687,8.42092031 L7.06966994,8.42092031 C7.222584,8.42092031 7.36709762,8.42092031 7.44166794,8.50887188 C7.48614062,8.56143438 7.49966212,8.63941719 7.48268162,8.747125 Z M9.91798631,8.73724688 L9.51238669,8.73724688 C9.47757225,8.73724688 9.44796875,8.76275781 9.44275781,8.79737656 L9.42478906,8.91188125 L9.39626369,8.870375 C9.30844144,8.74177812 9.11267187,8.69877656 8.91712694,8.69877656 C8.46867187,8.69877656 8.08580275,9.04138437 8.0111875,9.52196875 C7.97250975,9.76167187 8.02740431,9.99095313 8.16225975,10.1508156 C8.28615431,10.2977641 8.46287694,10.3590266 8.67338087,10.3590266 C9.03473244,10.3590266 9.235084,10.1246703 9.235084,10.1246703 L9.21698044,10.2384047 C9.21015231,10.2819047 9.2433945,10.3208734 9.28687887,10.3208734 L9.65227344,10.3208734 C9.71024194,10.3208621 9.7595705,10.278276 9.76853125,10.2205062 L9.98797462,8.81953437 C9.99112112,8.79893562 9.98518944,8.77797831 9.97173556,8.76216019 C9.95828169,8.746342 9.9386485,8.73724181 9.91798631,8.73724688 Z M9.35228512,9.53397656 C9.31338281,9.76783437 9.12915819,9.92484219 8.89444137,9.92484219 C8.77688087,9.92484219 8.68241012,9.88668906 8.62194531,9.81446094 C8.56197462,9.74273125 8.53942381,9.64055156 8.558291,9.52681719 C8.59508206,9.29499844 8.78191212,9.13287031 9.01303519,9.13287031 C9.12825975,9.13287031 9.22196681,9.17152187 9.28364456,9.24433906 C9.34572656,9.31797187 9.37025394,9.42074063 9.35228519,9.53397656 Z M10.3964043,8.00671875 L10.0485742,10.2388125 C10.0453548,10.2593542 10.0512135,10.2802878 10.064607,10.2960988 C10.0780004,10.3119098 10.0975856,10.3210126 10.1182031,10.3210094 L10.467875,10.3210094 C10.5259156,10.3211226 10.575352,10.2784927 10.5842676,10.2206422 L10.9272461,8.02883125 C10.9304758,8.00826969 10.9246264,7.987312 10.9112363,7.97147019 C10.8978462,7.95562831 10.8782557,7.946488 10.8576172,7.94645313 L10.4660781,7.94645313 C10.4313341,7.94656056 10.4018088,7.972099 10.3964043,8.00671875 Z" fill="#009CDE"></path>
                                    <g transform="translate(2.740000, 0.000000)">
                                        <path d="M1.71179297,6.84078281 L1.83348632,6.06131719 L1.56247266,6.05497344 L0.268453125,6.05497344 L1.16774414,0.303140625 C1.17339147,0.266904697 1.20437751,0.240226935 1.24074219,0.240292187 L3.42273242,0.240292187 C4.14714258,0.240292187 4.6470332,0.392270312 4.90798438,0.692375 C5.03039648,0.833160937 5.10829101,0.980290625 5.14602539,1.1422375 C5.18398438,1.30545313 5.41717382,1.56441406 5.3830332,1.79899687 C5.38164063,1.80855781 5.14916992,1.75295938 5.14764257,1.76265625 L5.1448125,1.78069063 L5.1448125,1.93928438 L5.26722461,2.00924688 C5.37023047,2.06439219 5.45212304,2.12746719 5.51496875,2.19974063 C5.61963672,2.32013594 5.68728906,2.47311094 5.71590429,2.65449687 C5.74550781,2.84104844 5.73566992,3.06303438 5.68728906,3.31429219 C5.63145117,3.60343125 5.54120313,3.8551875 5.41928516,4.06122344 C5.30720507,4.2510375 5.16439844,4.40849844 4.99477344,4.53047969 C4.832875,4.64638906 4.64051953,4.73434063 4.42305273,4.79066406 C4.21223438,4.84608125 3.97194727,4.87399375 3.70839063,4.87399375 L3.53858594,4.87399375 C3.41716211,4.87399375 3.29919727,4.91812812 3.20661328,4.99719844 C3.11419246,5.07712221 3.05287662,5.18752559 3.03357422,5.30876719 L3.02077149,5.37895625 L2.80586524,6.75278594 L2.79602734,6.80321875 C2.79355664,6.81921406 2.78910938,6.82718906 2.78259571,6.83253594 C2.77630589,6.83777637 2.76842696,6.84068675 2.76026953,6.84078281 L1.71179297,6.84078281 Z" fill="#253B80"></path>
                                        <path d="M5.08205664,1.67796719 C5.0380332,1.66505313 4.99266211,1.65327188 4.94616797,1.64275938 C4.89844877,1.63220879 4.85043718,1.62305185 4.80219336,1.6153 C4.62955859,1.58707031 4.4404375,1.57374844 4.23783984,1.57374844 L2.52761914,1.57374844 C2.39313696,1.57361429 2.27865346,1.67243138 2.25799805,1.80647344 L1.89422071,4.13086875 L1.88375391,4.19865625 C1.90720038,4.04578636 2.03766453,3.93300404 2.19101953,3.93303438 L2.83115625,3.93303438 C4.08851953,3.93303438 5.0729375,3.4180125 5.36070703,1.92804688 C5.36933203,1.8839125 5.37651953,1.84100156 5.38303321,1.79899688 C5.31025977,1.76002813 5.23137696,1.72672344 5.14642969,1.69835781 C5.12509308,1.69117798 5.10363203,1.68438004 5.08205664,1.67796719 Z" fill="#012069"></path>
                                        <path d="M5.38303321,1.79899687 C5.37651953,1.84100156 5.36910743,1.8839125 5.36070703,1.92804687 C5.0729375,3.41828437 4.08851953,3.93303438 2.83115625,3.93303438 L2.19101953,3.93303438 C2.03766453,3.93300404 1.90720038,4.04578636 1.88375391,4.19865625 L1.55595899,6.29549219 L1.46319531,6.88985625 C1.45572208,6.93755381 1.46931742,6.98616131 1.50040314,7.02288569 C1.53148886,7.05961006 1.57695097,7.08077244 1.62482422,7.08080312 L2.76026953,7.08080312 C2.89460496,7.08082881 3.00901412,6.98231456 3.03007031,6.84848594 L3.04125586,6.79035 L3.25503906,5.42186719 L3.26874024,5.34682969 C3.28958081,5.21278601 3.40407355,5.11400475 3.53858594,5.11401406 L3.70839063,5.11401406 C4.8084375,5.11401406 5.66958984,4.6635625 5.92133203,3.35983125 C6.02649414,2.81522031 5.97204883,2.36050937 5.69384766,2.04064844 C5.60961914,1.94422344 5.50517578,1.86424687 5.38303321,1.79899687 Z" fill="#009CDE"></path>
                                        <path d="M2.25799804,1.80647344 C2.27177026,1.71688831 2.32855839,1.63996394 2.40969922,1.60098125 C2.44649553,1.58315819 2.48680034,1.5739275 2.52761914,1.573975 L4.23783984,1.573975 C4.4404375,1.573975 4.62955859,1.58734219 4.80219336,1.61552656 C4.85151757,1.62350156 4.89944922,1.63260937 4.94616797,1.64294062 C4.99266211,1.65349844 5.0380332,1.66527969 5.08205664,1.67814844 C5.10388867,1.68471875 5.31030469,1.7606625 5.3830332,1.79899687 C5.46860937,1.24826875 5.38253906,0.873307812 5.08735742,0.533781251 C4.76194336,0.160043751 4.17458984,4.33295351e-10 3.42295703,4.33295351e-10 L1.24101172,4.33295351e-10 C1.08737816,-8.69720006e-05 0.956570769,0.112706454 0.932757812,0.265803126 L0.0239433594,6.07676875 C0.00597460938,6.19177187 0.0939765625,6.29549219 0.208886719,6.29549219 L1.55595898,6.29549219 L1.8942207,4.13086875 L2.25799804,1.80647344 Z" fill="#002F86"></path>
                                    </g>
                                </g>
                            </g>
                        </g>
                    </g>
                    <g id="Badges/Payment-Visa" transform="translate(46.000000, 0.000000)">
                        <g id="badge-payment-visa-48">
                            <rect id="Rectangle-path" x="0" y="0" width="30" height="30"></rect>
                            <g id="Group" transform="translate(0.625000, 6.250000)" fill-rule="nonzero">
                                <path d="M28.75,2.175 C28.75,0.97458125 27.7838203,0 26.59375,0 L2.15625,0 C0.966179688,0 0,0.97458125 0,2.175 L0,15.95 C0,17.1504188 0.966179688,18.125 2.15625,18.125 L26.59375,18.125 C27.7838203,18.125 28.75,17.1504188 28.75,15.95 L28.75,2.175 Z" id="Shape" fill="url(#linearGradient-2)"></path>
                                <path d="M14.2699278,5.67466563 L12.8291934,12.4684594 L11.0866738,12.4684594 L12.5280821,5.67466563 L14.2699278,5.67466563 Z M21.6003242,10.0612781 L22.5177188,7.51032031 L23.0456406,10.0612781 L21.6003242,10.0612781 Z M23.5448574,12.4684594 L25.15625,12.4684594 L23.749791,5.67466563 L22.2624727,5.67466563 C21.9279844,5.67466563 21.6457852,5.87073281 21.5207676,6.17292188 L18.9064043,12.4684594 L20.7356231,12.4684594 L21.0989062,11.4534141 L23.3342637,11.4534141 L23.5448574,12.4684594 Z M18.9969219,10.2502766 C19.0047832,8.45739688 16.5388418,8.35834375 16.5559571,7.55726406 C16.5614824,7.31361875 16.7913926,7.0546125 17.2950117,6.98836563 C17.5442832,6.95537813 18.2326211,6.9299125 19.0126894,7.29209531 L19.3188769,5.85170156 C18.8993516,5.69791094 18.3599746,5.55037344 17.6887969,5.55037344 C15.9667617,5.55037344 14.7544102,6.47402344 14.7449316,7.79610625 C14.7332969,8.77462969 15.6098125,9.31982969 16.2702539,9.64526406 C16.9488887,9.97822031 17.176418,10.1918234 17.1739922,10.4893 C17.1689609,10.9454156 16.632459,11.1466031 16.131041,11.1543516 C15.2551094,11.1680813 14.7465039,10.9155547 14.3417129,10.7250156 L14.0261367,12.2137125 C14.4328594,12.4022125 15.1844024,12.5666516 15.9634375,12.5746266 C17.7940039,12.5746266 18.9913965,11.6629844 18.9969219,10.2502766 Z M11.7802676,5.67466563 L8.95742188,12.4684594 L7.115625,12.4684594 L5.72655078,7.04645625 C5.64196289,6.71259375 5.56905469,6.59029531 5.31255078,6.44982656 C4.8936543,6.22031875 4.20208203,6.00522031 3.59375,5.87186563 L3.63485352,5.67466563 L6.59974219,5.67466563 C6.97726563,5.67466563 7.31727931,5.92809844 7.403125,6.36722188 L8.13687894,10.2985797 L9.95010544,5.67466563 L11.7802676,5.67466563 Z" id="Shape" fill="#FFFFFF"></path>
                            </g>
                        </g>
                    </g>
                </g>
            </g>
        </g>
    </g>
</svg>