<?xml version="1.0" encoding="UTF-8"?>
<svg width="61px" height="62px" viewBox="0 0 61 62" version="1.1" xmlns="http://www.w3.org/2000/svg" xmlns:xlink="http://www.w3.org/1999/xlink">
    <!-- Generator: sketchtool 50 (54983) - http://www.bohemiancoding.com/sketch -->
    <title>89902857-A723-4024-995C-BF18035DF3FA</title>
    <desc>Created with sketchtool.</desc>
    <defs></defs>
    <g id="Support" stroke="none" stroke-width="1" fill="none" fill-rule="evenodd">
        <g id="FAQ-Desktop-HD" transform="translate(-399.000000, -1658.000000)">
            <g id="Stacked-Group" transform="translate(251.000000, 942.000000)">
                <g id="03-All-topics" transform="translate(72.000000, 589.000000)">
                    <g id="icon-troubleshoot-48" transform="translate(74.000000, 125.000000)">
                        <rect id="Rectangle-path" x="0" y="0" width="64" height="64"></rect>
                        <g id="Group" transform="translate(3.333333, 2.000000)" stroke="#000000" stroke-width="2.5">
                            <path d="M27.4666667,42.8 L41.8666667,57.3333333 C45.6,61.0666667 51.4666667,61.0666667 55.2,57.3333333 C58.9333333,53.6 58.9333333,47.7333333 55.2,44 L41.8666667,30.6666667 M23.4666667,25.4666667 L14.8,16.8" id="Shape"></path>
                            <path d="M57.2,11.4666667 L49.3333333,19.3333333 L39.8666667,9.86666667 L47.7333333,2 C46,1.46666667 44,1.2 42,1.33333333 C34.5333333,2 28.5333333,8.66666667 28.6666667,16.1333333 C28.6666667,17.6 28.9333333,19.0666667 29.3333333,20.4 L3.73333333,43.0666667 C-0.133333333,46.4 -0.266666667,52.4 3.33333333,56 C6.93333333,59.6 12.8,59.4666667 16.2666667,55.6 L38.9333333,30 C41.2,30.6666667 43.7333333,30.9333333 46.4,30.4 C51.7333333,29.3333333 56.1333333,25.3333333 57.6,20.1333333 C58.2666667,16.9333333 58,14 57.2,11.4666667 Z" id="Shape" stroke-linecap="square"></path>
                            <polygon id="Shape" stroke-linecap="square" points="9.06666667 18.6666667 14.8 16.8 16.6666667 11.2 9.06666667 3.6 1.6 11.2"></polygon>
                            <path d="M41.8666667,44 L47.2,49.3333333" id="Shape" stroke-linecap="square"></path>
                        </g>
                    </g>
                </g>
            </g>
        </g>
    </g>
</svg>